<svg xmlns="http://www.w3.org/2000/svg" version="1.1" xmlns:xlink="http://www.w3.org/1999/xlink" xmlns:svgjs="http://svgjs.dev/svgjs" viewBox="0 0 5.547441870547641 5.547441870547641"><g transform="matrix(0.8571428571428572,0,0,0.8571428571428572,1.5770216640042891,2.520939649559535)"><g transform="matrix(1,0,0,1,0,0)"><g clip-path="url(#SvgjsClipPath29499)"><path d=" M -0.8844658414106883 -1.9857034912251414 L 3.7384023840456795 -1.9857034912251414 L 3.7384023840456795 2.6371647342312263 L -0.8844658414106883 2.6371647342312263 Z" fill="#1a77ff" transform="matrix(1,0,0,1,0,0)" fill-rule="nonzero"></path></g></g><g transform="matrix(1,0,0,1,0,0)"><path d=" M 0.26845 0.3566550000000001 C 0.264615 0.3934710000000001 0.260013 0.4264520000000001 0.260013 0.4617340000000001 C 0.260013 0.4954820000000001 0.260013 0.5338320000000001 0.285324 0.5599100000000001 C 0.286858 0.561444 0.287625 0.5530070000000001 0.287625 0.5491720000000001 C 0.289926 0.5530070000000001 0.289159 0.5553080000000001 0.294528 0.5576090000000001 C 0.292994 0.5553080000000001 0.292227 0.5537740000000001 0.292227 0.5530070000000001 C 0.292994 0.5522400000000001 0.296829 0.5560750000000001 0.298363 0.5576090000000001 C 0.298363 0.5553080000000001 0.29759599999999997 0.5537740000000001 0.29759599999999997 0.5522400000000001 C 0.29759599999999997 0.5499390000000001 0.298363 0.5491720000000001 0.29913 0.5491720000000001 C 0.301431 0.5491720000000001 0.305266 0.5553080000000001 0.306033 0.5553080000000001 C 0.306033 0.5553080000000001 0.306033 0.5499390000000001 0.304499 0.5476380000000001 C 0.3068 0.5476380000000001 0.309101 0.5468710000000001 0.310635 0.5468710000000001 C 0.312169 0.5468710000000001 0.312936 0.5476380000000001 0.31446999999999997 0.5484050000000001 C 0.31446999999999997 0.5476380000000001 0.316004 0.5445700000000001 0.316004 0.5445700000000001 C 0.319072 0.5453370000000001 0.319072 0.5484050000000001 0.321373 0.5514730000000001 C 0.321373 0.5491720000000001 0.322907 0.5484050000000001 0.323674 0.5484050000000001 C 0.324441 0.5537740000000001 0.329043 0.5530070000000001 0.333645 0.5545410000000001 L 0.334412 0.5522400000000001 C 0.338247 0.5522400000000001 0.340548 0.5553080000000001 0.342849 0.5560750000000001 C 0.336713 0.5514730000000001 0.335179 0.5184920000000001 0.335179 0.48014200000000007 C 0.335179 0.4210830000000001 0.340548 0.34821800000000014 0.346684 0.3374800000000001 L 0.36509199999999997 0.3374800000000001 C 0.363558 0.3351790000000001 0.363558 0.3344120000000001 0.363558 0.3344120000000001 C 0.36816 0.3344120000000001 0.369694 0.3359460000000001 0.368927 0.3351790000000001 L 0.372762 0.3351790000000001 C 0.373529 0.3351790000000001 0.369694 0.3321110000000001 0.371228 0.3321110000000001 C 0.374296 0.3321110000000001 0.376597 0.3336450000000001 0.378131 0.3351790000000001 C 0.379665 0.3344120000000001 0.381199 0.3344120000000001 0.38196599999999997 0.3344120000000001 C 0.384267 0.3344120000000001 0.386568 0.3351790000000001 0.387335 0.3351790000000001 C 0.388102 0.3351790000000001 0.388102 0.3344120000000001 0.388102 0.3321110000000001 C 0.394238 0.3321110000000001 0.39117 0.3167710000000001 0.399607 0.3160040000000001 C 0.392704 0.3106350000000001 0.377364 0.3060330000000001 0.350519 0.3037320000000001 C 0.357422 0.2684500000000001 0.358956 0.2523430000000001 0.366626 0.21322600000000008 C 0.370461 0.19328400000000012 0.375063 0.1541670000000001 0.375063 0.11888500000000007 C 0.375063 0.0912730000000001 0.372762 0.06596200000000008 0.364325 0.05445700000000009 C 0.362024 0.05445700000000009 0.359723 0.05522400000000005 0.358956 0.05522400000000005 C 0.358189 0.05522400000000005 0.357422 0.05445700000000009 0.356655 0.053690000000000127 C 0.356655 0.055991000000000124 0.356655 0.056758000000000086 0.355888 0.056758000000000086 C 0.355121 0.056758000000000086 0.353587 0.05445700000000009 0.35282 0.05445700000000009 C 0.350519 0.055991000000000124 0.347451 0.055991000000000124 0.344383 0.055991000000000124 L 0.339781 0.055991000000000124 C 0.339014 0.056758000000000086 0.338247 0.059059000000000084 0.338247 0.059059000000000084 C 0.333645 0.059059000000000084 0.336713 0.06596200000000008 0.334412 0.06596200000000008 C 0.332111 0.06596200000000008 0.330577 0.06442800000000015 0.329043 0.06136000000000008 C 0.328276 0.06442800000000015 0.322907 0.06826300000000007 0.319839 0.06826300000000007 C 0.315237 0.06826300000000007 0.316771 0.07133100000000014 0.315237 0.0720980000000001 C 0.315237 0.07056400000000007 0.313703 0.06979700000000011 0.312169 0.06979700000000011 C 0.312169 0.07133100000000014 0.312169 0.07286500000000007 0.311402 0.0743990000000001 C 0.293761 0.14803100000000008 0.287625 0.2231970000000001 0.274586 0.2975960000000001 C 0.238537 0.2960620000000001 0.207857 0.2937610000000001 0.175643 0.2922270000000001 C 0.177944 0.2477410000000001 0.195585 0.16260400000000008 0.195585 0.11121500000000012 C 0.195585 0.09204000000000012 0.192517 0.07823400000000014 0.186381 0.0720980000000001 C 0.184847 0.07133100000000014 0.184847 0.06903000000000015 0.184847 0.06672900000000015 C 0.184847 0.06442800000000015 0.184847 0.06289400000000012 0.18408 0.062127000000000154 C 0.183313 0.06059300000000012 0.180245 0.05292300000000005 0.177944 0.05215600000000009 C 0.175643 0.04602000000000006 0.175643 0.03911700000000007 0.167206 0.03911700000000007 C 0.16567199999999999 0.03911700000000007 0.151866 0.040651000000000104 0.14879799999999999 0.04218500000000014 C 0.144963 0.0452530000000001 0.144963 0.046787000000000134 0.141895 0.047554000000000096 C 0.139594 0.047554000000000096 0.136526 0.050622000000000056 0.134992 0.05138900000000013 C 0.13039 0.05138900000000013 0.127322 0.049855000000000094 0.124254 0.049855000000000094 C 0.121953 0.049855000000000094 0.118885 0.050622000000000056 0.114283 0.053690000000000127 C 0.106613 0.053690000000000127 0.104312 0.06749600000000011 0.095875 0.06749600000000011 C 0.071331 0.1411280000000001 0.062127 0.2185950000000001 0.049088 0.2891590000000001 C 0.044486 0.2891590000000001 0.03835 0.2899260000000001 0.036816 0.2914600000000001 C 0.036816 0.2914600000000001 0.041417999999999996 0.2929940000000001 0.041417999999999996 0.2937610000000001 C 0.036049 0.2945280000000001 0.009204 0.2952950000000001 0.009204 0.2991300000000001 C 0.009204 0.2998970000000001 0.009971 0.3006640000000001 0.012272 0.3014310000000001 C 0.00767 0.3014310000000001 0.005369 0.3060330000000001 0.001534 0.3060330000000001 C -0.000767 0.3068000000000001 -0.002301 0.3083340000000001 -0.002301 0.3114020000000001 C -0.002301 0.3206060000000001 0.009971 0.3374800000000001 0.013806 0.3367130000000001 C 0.032214 0.3359460000000001 0.043719 0.3359460000000001 0.043719 0.3359460000000001 C 0.039117 0.3742960000000001 0.027612 0.45406400000000013 0.027612 0.5100550000000001 C 0.027612 0.5230940000000001 0.027612 0.5353660000000001 0.029146 0.5453370000000001 C 0.042185 0.5583760000000001 0.039884 0.5936580000000001 0.072865 0.5936580000000001 C 0.075166 0.5936580000000001 0.075933 0.5928910000000001 0.075933 0.5928910000000001 C 0.075933 0.5913570000000001 0.07439899999999999 0.5890560000000001 0.07439899999999999 0.5882890000000001 C 0.077467 0.5905900000000001 0.079768 0.5921240000000001 0.079768 0.5928910000000001 C 0.083603 0.5959590000000001 0.09971 0.5990270000000001 0.102778 0.5990270000000001 C 0.105079 0.5990270000000001 0.105846 0.6005610000000001 0.105846 0.6005610000000001 C 0.105846 0.599794 0.105846 0.5959590000000001 0.106613 0.5936580000000001 C 0.10738 0.5944250000000001 0.109681 0.595192 0.110448 0.595192 C 0.112749 0.595192 0.115817 0.5944250000000001 0.118118 0.5944250000000001 C 0.118885 0.5944250000000001 0.126555 0.5936580000000001 0.13039 0.5936580000000001 C 0.132691 0.5936580000000001 0.134992 0.5936580000000001 0.137293 0.5944250000000001 L 0.14036099999999999 0.5944250000000001 C 0.142662 0.5944250000000001 0.144963 0.595192 0.147264 0.595192 C 0.14879799999999999 0.595192 0.150332 0.5944250000000001 0.152633 0.5936580000000001 C 0.154167 0.5944250000000001 0.158002 0.6005610000000001 0.159536 0.6013280000000001 C 0.15723499999999999 0.599794 0.156468 0.5836870000000001 0.156468 0.5591430000000001 C 0.156468 0.4839770000000001 0.16567199999999999 0.3336450000000001 0.171041 0.3351790000000001 C 0.200954 0.3336450000000001 0.211692 0.3313440000000001 0.240838 0.3313440000000001 C 0.249275 0.3313440000000001 0.259246 0.3313440000000001 0.270751 0.3321110000000001 L 0.269217 0.3466840000000001 C 0.269217 0.34975200000000006 0.26845 0.3535870000000001 0.26845 0.3566550000000001 M 0.8046479103710937 0.14803100000000008 C 0.8054149103710937 0.1441960000000001 0.8054149103710937 0.14036100000000012 0.8054149103710937 0.1365260000000001 C 0.8038809103710938 0.1127490000000001 0.7816379103710938 0.0981760000000001 0.7578609103710938 0.0981760000000001 C 0.7133749103710938 0.0981760000000001 0.7118409103710938 0.1557010000000001 0.7049379103710938 0.1856140000000001 C 0.6550829103710938 0.2768870000000001 0.6251699103710937 0.38580100000000006 0.5806839103710937 0.4732390000000001 C 0.5791499103710938 0.47784100000000007 0.5768489103710938 0.4809090000000001 0.5722469103710938 0.4839770000000001 C 0.5668779103710937 0.45176300000000014 0.5661109103710937 0.41724800000000006 0.5661109103710937 0.38426700000000014 C 0.5661109103710937 0.3068000000000001 0.5753149103710937 0.22779900000000008 0.5929559103710937 0.15723500000000012 C 0.5960239103710938 0.14573000000000008 0.5990919103710938 0.13269100000000011 0.6044609103710937 0.12425400000000009 C 0.6144319103710938 0.11351600000000012 0.6221019103710937 0.10277800000000009 0.6221019103710937 0.08897200000000005 C 0.6221019103710937 0.04371900000000006 0.5998589103710937 0.03068000000000015 0.5691789103710938 0.03068000000000015 C 0.5599749103710938 0.03068000000000015 0.5139549103710938 0.03068000000000015 0.5024499103710938 0.04908800000000013 C 0.49171191037109374 0.06059300000000012 0.48634291037109373 0.0790010000000001 0.4832749103710937 0.09204000000000012 C 0.46103191037109376 0.1894490000000001 0.44722591037109377 0.2937610000000001 0.44722591037109377 0.3896360000000001 C 0.44722591037109377 0.4410250000000001 0.44799291037109373 0.5629780000000001 0.5154889103710938 0.5629780000000001 C 0.5239259103710937 0.5629780000000001 0.5392659103710937 0.5545410000000001 0.5407999103710938 0.5530070000000001 C 0.5454019103710938 0.5530070000000001 0.5615089103710937 0.5476380000000001 0.5645769103710938 0.5461040000000001 C 0.5668779103710937 0.5476380000000001 0.5691789103710938 0.5484050000000001 0.5699459103710938 0.5484050000000001 C 0.5714799103710937 0.5484050000000001 0.5722469103710938 0.5476380000000001 0.5722469103710938 0.5461040000000001 C 0.5722469103710938 0.5438030000000001 0.5745479103710938 0.5422690000000001 0.5753149103710937 0.5422690000000001 C 0.5760819103710937 0.5430360000000001 0.5768489103710938 0.5445700000000001 0.5768489103710938 0.5445700000000001 C 0.5776159103710937 0.5445700000000001 0.5791499103710938 0.5422690000000001 0.5799169103710937 0.5415020000000001 C 0.5776159103710937 0.5415020000000001 0.5745479103710938 0.5415020000000001 0.5722469103710938 0.5415020000000001 C 0.5722469103710938 0.539201 0.5753149103710937 0.539201 0.5776159103710937 0.539201 C 0.5837519103710938 0.539201 0.5852859103710938 0.5422690000000001 0.5898879103710938 0.5422690000000001 C 0.6282379103710938 0.5422690000000001 0.6573839103710938 0.4740060000000001 0.6719569103710937 0.4394910000000001 L 0.6742579103710937 0.4333550000000001 C 0.6734909103710938 0.4456270000000001 0.6688889103710938 0.4770740000000001 0.6688889103710938 0.5062200000000001 C 0.6688889103710938 0.527696 0.6734909103710938 0.5836870000000001 0.7003359103710938 0.5836870000000001 C 0.7018699103710937 0.5836870000000001 0.7049379103710938 0.5806190000000001 0.7072389103710938 0.5806190000000001 L 0.7110739103710937 0.5806190000000001 C 0.7133749103710938 0.5798520000000001 0.7118409103710938 0.5760170000000001 0.7133749103710938 0.5760170000000001 C 0.7149089103710937 0.5760170000000001 0.7179769103710938 0.5798520000000001 0.7187439103710938 0.5798520000000001 C 0.7195109103710937 0.5798520000000001 0.7195109103710937 0.5790850000000001 0.7195109103710937 0.5775510000000001 C 0.7202779103710937 0.5790850000000001 0.7248799103710937 0.5813860000000001 0.7256469103710937 0.5821530000000001 C 0.7256469103710937 0.5798520000000001 0.7264139103710938 0.5798520000000001 0.7264139103710938 0.5798520000000001 C 0.7294819103710937 0.5798520000000001 0.7302489103710937 0.5829200000000001 0.7317829103710938 0.5867550000000001 C 0.7317829103710938 0.5829200000000001 0.7302489103710937 0.5790850000000001 0.7302489103710937 0.5737160000000001 C 0.7310159103710938 0.5767840000000001 0.7317829103710938 0.5821530000000001 0.7333169103710937 0.5821530000000001 C 0.7340839103710938 0.5821530000000001 0.7348509103710937 0.5813860000000001 0.7356179103710938 0.5806190000000001 C 0.7363849103710938 0.5829200000000001 0.7363849103710938 0.5836870000000001 0.7386859103710938 0.5844540000000001 C 0.7386859103710938 0.5806190000000001 0.7425209103710937 0.5767840000000001 0.7425209103710937 0.5767840000000001 C 0.7425209103710937 0.5790850000000001 0.7448219103710938 0.5806190000000001 0.7455889103710938 0.5821530000000001 L 0.7455889103710938 0.5798520000000001 C 0.7478899103710938 0.5798520000000001 0.7486569103710937 0.5829200000000001 0.7494239103710938 0.5836870000000001 C 0.7494239103710938 0.5790850000000001 0.7540259103710938 0.5767840000000001 0.7570939103710937 0.5767840000000001 L 0.7570939103710937 0.5836870000000001 C 0.7570939103710937 0.5844540000000001 0.7570939103710937 0.5859880000000001 0.7578609103710938 0.5867550000000001 C 0.7586279103710938 0.5806190000000001 0.7632299103710938 0.5806190000000001 0.7632299103710938 0.5790850000000001 C 0.7639969103710937 0.5806190000000001 0.7639969103710937 0.5829200000000001 0.7639969103710937 0.5829200000000001 M 1.2158431718164062 0.3850340000000001 C 1.2166101718164062 0.3850340000000001 1.2189111718164063 0.3850340000000001 1.2204451718164062 0.38426700000000014 C 1.2181441718164063 0.38350000000000006 1.2181441718164063 0.3827330000000001 1.2181441718164063 0.38119900000000007 C 1.2181441718164063 0.3796650000000001 1.2189111718164063 0.3781310000000001 1.2189111718164063 0.37659700000000007 C 1.2189111718164063 0.3758300000000001 1.2189111718164063 0.3750630000000001 1.2173771718164064 0.3750630000000001 L 1.2143091718164063 0.3750630000000001 C 1.2135421718164063 0.3750630000000001 1.2120081718164062 0.3750630000000001 1.2120081718164062 0.3742960000000001 C 1.2120081718164062 0.3735290000000001 1.2120081718164062 0.3727620000000001 1.2127751718164062 0.3719950000000001 C 1.2020371718164062 0.3696940000000001 1.1974351718164062 0.3681600000000001 1.1774931718164063 0.3673930000000001 C 1.1705901718164062 0.3052660000000001 1.1468131718164063 0.09971000000000008 1.1299391718164062 0.06059300000000012 C 1.1276381718164061 0.059826000000000046 1.1261041718164062 0.059826000000000046 1.1253371718164062 0.05752500000000005 C 1.1230361718164064 0.05752500000000005 1.1222691718164062 0.055991000000000124 1.1207351718164063 0.055991000000000124 C 1.1207351718164063 0.059826000000000046 1.1238031718164063 0.06289400000000012 1.1238031718164063 0.06442800000000015 C 1.1207351718164063 0.06289400000000012 1.1207351718164063 0.059826000000000046 1.1153661718164063 0.059826000000000046 C 1.1153661718164063 0.05752500000000005 1.1145991718164063 0.05752500000000005 1.1130651718164062 0.055991000000000124 C 1.1130651718164062 0.05752500000000005 1.1145991718164063 0.059826000000000046 1.1145991718164063 0.059826000000000046 C 1.1138321718164064 0.059059000000000084 1.1169001718164062 0.06749600000000011 1.1184341718164061 0.06979700000000011 C 1.1153661718164063 0.06979700000000011 1.1145991718164063 0.06672900000000015 1.1130651718164062 0.06672900000000015 C 1.1099971718164063 0.06442800000000015 1.1092301718164062 0.059826000000000046 1.1053951718164061 0.05752500000000005 L 1.1053951718164061 0.06059300000000012 C 1.1046281718164064 0.059059000000000084 1.1046281718164064 0.06289400000000012 1.1046281718164064 0.06289400000000012 C 1.1046281718164064 0.06289400000000012 1.1023271718164063 0.059826000000000046 1.1007931718164063 0.059826000000000046 C 1.1030941718164062 0.06136000000000008 1.1046281718164064 0.06366100000000008 1.1046281718164064 0.06596200000000008 C 1.0992591718164062 0.06596200000000008 1.0969581718164063 0.06136000000000008 1.0946571718164062 0.05752500000000005 C 1.0946571718164062 0.059826000000000046 1.0908221718164062 0.059059000000000084 1.0908221718164062 0.059826000000000046 C 1.0892881718164062 0.059826000000000046 1.0892881718164062 0.05829200000000012 1.0892881718164062 0.05829200000000012 C 1.0885211718164063 0.05829200000000012 1.0854531718164062 0.05752500000000005 1.0854531718164062 0.05752500000000005 C 1.0754821718164063 0.05215600000000009 1.0854531718164062 0.04908800000000013 1.0747151718164063 0.0452530000000001 L 1.0708801718164063 0.0452530000000001 C 1.0133551718164062 0.0452530000000001 0.9811411718164063 0.14956500000000011 0.9596651718164062 0.1871480000000001 C 0.9320531718164062 0.2508090000000001 0.9052081718164062 0.3106350000000001 0.8837321718164063 0.3712280000000001 C 0.8798971718164063 0.3742960000000001 0.8722271718164063 0.3827330000000001 0.8722271718164063 0.3904030000000001 C 0.8722271718164063 0.3927040000000001 0.8729941718164063 0.3950050000000001 0.8745281718164063 0.3973060000000001 C 0.8645571718164062 0.42261700000000013 0.8423141718164062 0.4862780000000001 0.8423141718164062 0.5054530000000002 C 0.8407801718164063 0.5131230000000001 0.8400131718164062 0.5200260000000001 0.8400131718164062 0.5269290000000001 C 0.8400131718164062 0.5376670000000001 0.8423141718164062 0.5491720000000001 0.8461491718164063 0.5606770000000001 L 0.8515181718164062 0.5652790000000001 L 0.8584211718164062 0.5691140000000001 C 0.8591881718164063 0.5829200000000001 0.8676251718164063 0.5767840000000001 0.8752951718164063 0.5844540000000001 C 0.8829651718164062 0.5859880000000001 0.8814311718164063 0.5867550000000001 0.8891011718164062 0.5867550000000001 C 0.9006061718164062 0.5867550000000001 0.9236161718164062 0.5836870000000001 0.9343541718164062 0.5836870000000001 C 0.9527621718164062 0.529997 0.9803741718164063 0.4648020000000001 0.9964811718164063 0.42185000000000006 C 1.0118211718164063 0.41954900000000006 1.0800841718164063 0.4187820000000001 1.1030941718164062 0.4187820000000001 C 1.1092301718164062 0.4839770000000001 1.1169001718164062 0.5453370000000001 1.1261041718164062 0.6082310000000001 C 1.1284051718164063 0.6159010000000001 1.1276381718164061 0.6205030000000001 1.1299391718164062 0.6251050000000001 C 1.1345411718164062 0.6235710000000001 1.1322401718164063 0.6182020000000001 1.1345411718164062 0.6159010000000001 C 1.1345411718164062 0.6143670000000001 1.1368421718164061 0.6143670000000001 1.1368421718164061 0.6143670000000001 L 1.1368421718164061 0.6082310000000001 C 1.1368421718164061 0.606697 1.1376091718164063 0.6051630000000001 1.1376091718164063 0.602095 C 1.1383761718164063 0.6051630000000001 1.1383761718164063 0.606697 1.1383761718164063 0.6082310000000001 C 1.1391431718164062 0.6074640000000001 1.1391431718164062 0.6059300000000001 1.1391431718164062 0.604396 C 1.1391431718164062 0.6028620000000001 1.1391431718164062 0.6013280000000001 1.1406771718164062 0.6013280000000001 L 1.1429781718164063 0.6013280000000001 C 1.1437451718164062 0.6013280000000001 1.1445121718164062 0.604396 1.1445121718164062 0.6051630000000001 L 1.1445121718164062 0.6082310000000001 C 1.1445121718164062 0.6112990000000001 1.1445121718164062 0.6128330000000001 1.1452791718164064 0.6128330000000001 C 1.1468131718164063 0.6128330000000001 1.1475801718164063 0.6082310000000001 1.1475801718164063 0.604396 C 1.1491141718164062 0.6036290000000001 1.1506481718164063 0.6105320000000001 1.1506481718164063 0.6097650000000001 C 1.1529491718164062 0.6097650000000001 1.1529491718164062 0.6082310000000001 1.1544831718164064 0.6082310000000001 C 1.1552501718164063 0.6082310000000001 1.1598521718164063 0.6128330000000001 1.1613861718164062 0.6159010000000001 C 1.1621531718164062 0.6159010000000001 1.1621531718164062 0.6105320000000001 1.1621531718164062 0.6105320000000001 C 1.1636871718164064 0.6105320000000001 1.1636871718164064 0.6120660000000001 1.1636871718164064 0.6120660000000001 C 1.1675221718164064 0.6120660000000001 1.1682891718164061 0.6051630000000001 1.1682891718164061 0.6028620000000001 L 1.1682891718164061 0.5944250000000001 C 1.1698231718164063 0.5982600000000001 1.1682891718164061 0.602095 1.1713571718164062 0.6082310000000001 C 1.1728911718164063 0.6136000000000001 1.1728911718164063 0.6189690000000001 1.1751921718164062 0.6235710000000001 C 1.1751921718164062 0.6197360000000001 1.1751921718164062 0.6120660000000001 1.1767261718164064 0.6105320000000001 C 1.1767261718164064 0.6097650000000001 1.1751921718164062 0.6097650000000001 1.1751921718164062 0.6082310000000001 C 1.1751921718164062 0.606697 1.1774931718164063 0.5928910000000001 1.1782601718164063 0.5913570000000001 C 1.1790271718164063 0.5959590000000001 1.1790271718164063 0.6051630000000001 1.1836291718164063 0.606697 L 1.1836291718164063 0.5990270000000001 L 1.1859301718164064 0.5944250000000001 C 1.1866971718164063 0.595192 1.1866971718164063 0.5959590000000001 1.1866971718164063 0.5967260000000001 C 1.1866971718164063 0.597493 1.1866971718164063 0.5990270000000001 1.1874641718164063 0.599794 C 1.1882311718164063 0.6005610000000001 1.1912991718164063 0.6059300000000001 1.1912991718164063 0.606697 C 1.1912991718164063 0.5967260000000001 1.1951341718164064 0.5767840000000001 1.1951341718164064 0.5599100000000001 C 1.1951341718164064 0.5560750000000001 1.1951341718164064 0.5530070000000001 1.1943671718164062 0.5499390000000001 C 1.1905321718164061 0.5085210000000001 1.1859301718164064 0.4617340000000001 1.1828621718164063 0.42031600000000013 C 1.1882311718164063 0.4187820000000001 1.1920661718164063 0.4187820000000001 1.1974351718164062 0.41724800000000006 C 1.1982021718164062 0.4164810000000001 1.1920661718164063 0.41264600000000007 1.1920661718164063 0.4118790000000001 L 1.1959011718164063 0.4118790000000001 C 1.1974351718164062 0.4111120000000001 1.2005031718164063 0.41034500000000007 1.2028041718164062 0.41034500000000007 C 1.2028041718164062 0.41034500000000007 1.2081731718164064 0.4065100000000001 1.2081731718164064 0.4042090000000001 C 1.2081731718164064 0.4011410000000001 1.2081731718164064 0.4003740000000001 1.2104741718164063 0.4003740000000001 C 1.2104741718164063 0.3980730000000001 1.2127751718164062 0.3965390000000001 1.2143091718164063 0.3965390000000001 C 1.2158431718164062 0.3957720000000001 1.2166101718164062 0.3950050000000001 1.2166101718164062 0.3942380000000001 C 1.2166101718164062 0.3934710000000001 1.2158431718164062 0.3919370000000001 1.2158431718164062 0.39117000000000013 C 1.2158431718164062 0.3904030000000001 1.2166101718164062 0.3896360000000001 1.2181441718164063 0.3896360000000001 C 1.2173771718164064 0.38886900000000013 1.2158431718164062 0.38656800000000013 1.2158431718164062 0.3850340000000001 M 1.0164231718164063 0.3635580000000001 C 1.0463361718164061 0.2853240000000001 1.0632101718164062 0.2508090000000001 1.0823851718164064 0.19098300000000012 C 1.0831521718164063 0.2423720000000001 1.0923561718164063 0.2998970000000001 1.0984921718164062 0.3635580000000001 C 1.0762491718164062 0.3635580000000001 1.0616761718164063 0.3627910000000001 1.0448021718164062 0.3627910000000001 C 1.0363651718164062 0.3627910000000001 1.0271611718164062 0.3627910000000001 1.0164231718164063 0.3635580000000001 M 1.7022111744726562 0.09510800000000008 C 1.6937741744726562 0.09510800000000008 1.6761331744726562 0.06596200000000008 1.6699971744726563 0.062127000000000154 C 1.6699971744726563 0.062127000000000154 1.669230174472656 0.06442800000000015 1.6684631744726561 0.06442800000000015 C 1.6684631744726561 0.06442800000000015 1.6676961744726562 0.06366100000000008 1.6676961744726562 0.062127000000000154 L 1.665395174472656 0.062127000000000154 C 1.6615601744726562 0.062127000000000154 1.6577251744726562 0.06289400000000012 1.6577251744726562 0.07593300000000014 C 1.619375174472656 0.17947800000000008 1.6032681744726562 0.3021980000000001 1.5756561744726563 0.45559800000000006 C 1.574889174472656 0.4594330000000001 1.5741221744726561 0.4617340000000001 1.571054174472656 0.4671030000000001 C 1.5679861744726562 0.4632680000000001 1.5664521744726563 0.45636500000000013 1.5649181744726561 0.4502290000000001 C 1.5534131744726563 0.3942380000000001 1.5472771744726561 0.22243000000000007 1.5258011744726563 0.1871480000000001 C 1.5258011744726563 0.1871480000000001 1.5219661744726563 0.1825460000000001 1.5219661744726563 0.17947800000000008 L 1.5188981744726562 0.1748760000000001 C 1.4974221744726561 0.1372930000000001 1.4636741744726562 0.0813020000000001 1.421489174472656 0.0813020000000001 C 1.4069161744726562 0.0813020000000001 1.3915761744726562 0.08820500000000009 1.3754691744726562 0.10354500000000011 C 1.309507174472656 0.1802450000000001 1.2795941744726562 0.3091010000000001 1.2795941744726562 0.4310540000000001 C 1.2795941744726562 0.45559800000000006 1.2811281744726561 0.48014200000000007 1.2834291744726563 0.5039190000000001 C 1.286497174472656 0.507754 1.286497174472656 0.5138900000000001 1.2887981744726562 0.5184920000000001 L 1.291866174472656 0.5184920000000001 C 1.2972351744726562 0.5215600000000001 1.300303174472656 0.5246280000000001 1.3026041744726562 0.5246280000000001 C 1.3033711744726562 0.5246280000000001 1.3079731744726562 0.5284630000000001 1.3110411744726562 0.5284630000000001 L 1.3148761744726563 0.5338320000000001 L 1.3171771744726561 0.5330650000000001 C 1.3202451744726562 0.5361330000000001 1.3240801744726562 0.5430360000000001 1.327148174472656 0.5476380000000001 C 1.3294491744726562 0.5499390000000001 1.3294491744726562 0.5576090000000001 1.3332841744726562 0.5622110000000001 C 1.3355851744726561 0.5645120000000001 1.3386531744726562 0.5737160000000001 1.3440221744726562 0.5737160000000001 C 1.3516921744726562 0.568347 1.353993174472656 0.5499390000000001 1.3570611744726562 0.5369000000000002 C 1.3701001744726562 0.4118790000000001 1.385440174472656 0.2561780000000001 1.4437321744726561 0.14803100000000008 C 1.4514021744726562 0.1580020000000001 1.4506351744726562 0.18408000000000008 1.4537031744726563 0.20018700000000011 C 1.462140174472656 0.2814890000000001 1.4751791744726561 0.5108220000000001 1.5196651744726561 0.5775510000000001 C 1.5311701744726562 0.5875220000000001 1.5480441744726563 0.5928910000000001 1.5641511744726562 0.5928910000000001 C 1.5909961744726562 0.5928910000000001 1.6178411744726562 0.5783180000000001 1.6262781744726562 0.5430360000000001 C 1.6615601744726562 0.38656800000000013 1.6761331744726562 0.24927500000000008 1.700677174472656 0.1372930000000001 C 1.705279174472656 0.1372930000000001 1.7075801744726562 0.09971000000000008 1.7075801744726562 0.09204000000000012 L 1.705279174472656 0.09280700000000008 C 1.7045121744726561 0.09434100000000012 1.7037451744726562 0.09510800000000008 1.7022111744726562 0.09510800000000008 M 1.395411174472656 0.2063230000000001 C 1.3931101744726562 0.20785700000000012 1.3923431744726562 0.2093910000000001 1.3923431744726562 0.2116920000000001 C 1.3938771744726561 0.21092500000000008 1.3938771744726561 0.2116920000000001 1.395411174472656 0.2086240000000001 C 1.395411174472656 0.2193620000000001 1.386207174472656 0.2377700000000001 1.3823721744726563 0.2500420000000001 C 1.380838174472656 0.24927500000000008 1.380838174472656 0.2477410000000001 1.380838174472656 0.24697400000000008 C 1.380838174472656 0.24390600000000012 1.385440174472656 0.2408380000000001 1.385440174472656 0.2385370000000001 C 1.385440174472656 0.2377700000000001 1.3846731744726561 0.23700300000000007 1.3839061744726562 0.23700300000000007 C 1.3839061744726562 0.2285660000000001 1.3869741744726563 0.21782800000000008 1.390042174472656 0.21782800000000008 C 1.390042174472656 0.22012900000000007 1.3877411744726562 0.2239640000000001 1.3877411744726562 0.2262650000000001 C 1.390042174472656 0.2262650000000001 1.3877411744726562 0.2216630000000001 1.3908091744726563 0.22012900000000007 C 1.3908091744726563 0.2063230000000001 1.3977121744726562 0.19635200000000008 1.4007801744726562 0.1856140000000001 C 1.4000131744726563 0.1848470000000001 1.4000131744726563 0.18408000000000008 1.4000131744726563 0.18331300000000011 C 1.4000131744726563 0.1802450000000001 1.4030811744726561 0.17641000000000012 1.4053821744726562 0.17641000000000012 C 1.404615174472656 0.17641000000000012 1.403848174472656 0.1756430000000001 1.403848174472656 0.1748760000000001 C 1.403848174472656 0.17410900000000012 1.403848174472656 0.1725750000000001 1.404615174472656 0.17180800000000013 C 1.403848174472656 0.17180800000000013 1.403848174472656 0.1725750000000001 1.403848174472656 0.17180800000000013 C 1.403848174472656 0.1702740000000001 1.4030811744726561 0.16950700000000007 1.4030811744726561 0.1687400000000001 C 1.404615174472656 0.1687400000000001 1.404615174472656 0.16950700000000007 1.4053821744726562 0.16950700000000007 C 1.4053821744726562 0.1687400000000001 1.4061491744726562 0.1679730000000001 1.4069161744726562 0.16720600000000008 L 1.4069161744726562 0.16413800000000012 C 1.408450174472656 0.16030300000000008 1.4107511744726562 0.15723500000000012 1.4122851744726561 0.1518660000000001 C 1.4122851744726561 0.1534000000000001 1.4122851744726561 0.15493400000000013 1.4115181744726562 0.1557010000000001 C 1.413052174472656 0.1518660000000001 1.416887174472656 0.14803100000000008 1.416887174472656 0.14803100000000008 C 1.416887174472656 0.14726400000000012 1.4291591744726562 0.12425400000000009 1.4337611744726562 0.12348700000000012 C 1.4337611744726562 0.12578800000000012 1.4314601744726563 0.12578800000000012 1.4314601744726563 0.12885600000000008 C 1.4314601744726563 0.12885600000000008 1.430693174472656 0.1365260000000001 1.4283921744726562 0.1388270000000001 C 1.4283921744726562 0.13806000000000013 1.4291591744726562 0.13806000000000013 1.4291591744726562 0.1365260000000001 C 1.4291591744726562 0.1365260000000001 1.4283921744726562 0.13806000000000013 1.426091174472656 0.1388270000000001 C 1.426091174472656 0.1395940000000001 1.426858174472656 0.1411280000000001 1.426858174472656 0.1418950000000001 C 1.426858174472656 0.14266200000000012 1.426091174472656 0.14342900000000008 1.4253241744726561 0.14342900000000008 L 1.426091174472656 0.14036100000000012 C 1.4245571744726562 0.1418950000000001 1.4222561744726563 0.14956500000000011 1.4199551744726562 0.1510990000000001 C 1.4207221744726561 0.1518660000000001 1.4207221744726561 0.15263300000000007 1.4207221744726561 0.1534000000000001 C 1.4207221744726561 0.1541670000000001 1.4153531744726562 0.1587690000000001 1.4153531744726562 0.16183700000000012 C 1.4153531744726562 0.16260400000000008 1.4161201744726561 0.1633710000000001 1.4161201744726561 0.16413800000000012 C 1.4145861744726562 0.16413800000000012 1.4122851744726561 0.16950700000000007 1.4115181744726562 0.17180800000000013 C 1.4107511744726562 0.1756430000000001 1.4076831744726561 0.18101200000000012 1.4053821744726562 0.1856140000000001 C 1.4053821744726562 0.18638100000000007 1.404615174472656 0.1871480000000001 1.404615174472656 0.1879150000000001 C 1.404615174472656 0.1894490000000001 1.4069161744726562 0.18638100000000007 1.4092171744726563 0.18101200000000012 L 1.4092171744726563 0.1825460000000001 C 1.4053821744726562 0.1917500000000001 1.4007801744726562 0.19865300000000008 1.3969451744726562 0.2086240000000001 C 1.3969451744726562 0.20785700000000012 1.3969451744726562 0.2063230000000001 1.395411174472656 0.2063230000000001 M 1.4237901744726562 0.17717700000000008 C 1.4230231744726562 0.17871100000000012 1.4207221744726561 0.1848470000000001 1.4207221744726561 0.1856140000000001 C 1.4207221744726561 0.1825460000000001 1.4222561744726563 0.1756430000000001 1.4245571744726562 0.1725750000000001 C 1.4245571744726562 0.1710410000000001 1.426858174472656 0.1679730000000001 1.426858174472656 0.1656720000000001 C 1.4184211744726563 0.1802450000000001 1.4161201744726561 0.1894490000000001 1.4161201744726561 0.1902160000000001 C 1.416887174472656 0.1894490000000001 1.417654174472656 0.1894490000000001 1.4184211744726563 0.1894490000000001 C 1.4107511744726562 0.21092500000000008 1.4061491744726562 0.2254980000000001 1.399246174472656 0.24160500000000013 C 1.399246174472656 0.23470200000000008 1.403848174472656 0.2308670000000001 1.403848174472656 0.22473100000000013 C 1.403848174472656 0.22473100000000013 1.4015471744726562 0.22473100000000013 1.4015471744726562 0.2262650000000001 C 1.4015471744726562 0.22703200000000012 1.4007801744726562 0.2408380000000001 1.395411174472656 0.2408380000000001 C 1.3961781744726562 0.23393500000000012 1.3969451744726562 0.21706100000000011 1.4007801744726562 0.21322600000000008 C 1.4007801744726562 0.21476000000000012 1.4015471744726562 0.21476000000000012 1.4015471744726562 0.21476000000000012 C 1.4007801744726562 0.2139930000000001 1.4007801744726562 0.21245900000000012 1.4007801744726562 0.2116920000000001 C 1.4030811744726561 0.2086240000000001 1.4030811744726561 0.20785700000000012 1.4030811744726561 0.2047890000000001 C 1.4061491744726562 0.2047890000000001 1.4069161744726562 0.20325500000000007 1.4069161744726562 0.20018700000000011 C 1.4069161744726562 0.2017210000000001 1.4076831744726561 0.2017210000000001 1.408450174472656 0.2017210000000001 C 1.4092171744726563 0.2017210000000001 1.4107511744726562 0.20095400000000008 1.4107511744726562 0.20095400000000008 C 1.413052174472656 0.20325500000000007 1.4153531744726562 0.17717700000000008 1.4199551744726562 0.17717700000000008 C 1.4199551744726562 0.17641000000000012 1.4191881744726562 0.1756430000000001 1.4191881744726562 0.1748760000000001 C 1.4199551744726562 0.17410900000000012 1.417654174472656 0.17410900000000012 1.416887174472656 0.17410900000000012 C 1.4161201744726561 0.17410900000000012 1.4199551744726562 0.1710410000000001 1.4207221744726561 0.1687400000000001 C 1.4207221744726561 0.1702740000000001 1.4199551744726562 0.17180800000000013 1.4199551744726562 0.1733420000000001 C 1.4253241744726561 0.16413800000000012 1.4291591744726562 0.1510990000000001 1.435295174472656 0.1418950000000001 C 1.4375961744726562 0.14342900000000008 1.4375961744726562 0.14496300000000012 1.4375961744726562 0.14726400000000012 C 1.4337611744726562 0.15033200000000008 1.4245571744726562 0.1725750000000001 1.4237901744726562 0.17717700000000008 M 1.4153531744726562 0.1388270000000001 C 1.4153531744726562 0.1395940000000001 1.4161201744726561 0.13806000000000013 1.4161201744726561 0.1372930000000001 C 1.4161201744726561 0.13806000000000013 1.416887174472656 0.1395940000000001 1.416887174472656 0.1395940000000001 C 1.416887174472656 0.1411280000000001 1.4161201744726561 0.14266200000000012 1.4161201744726561 0.1441960000000001 C 1.417654174472656 0.1411280000000001 1.4191881744726562 0.13806000000000013 1.4199551744726562 0.13345800000000008 C 1.4230231744726562 0.13345800000000008 1.426858174472656 0.12425400000000009 1.4322271744726562 0.11888500000000007 C 1.426091174472656 0.12808900000000012 1.4184211744726563 0.1395940000000001 1.4138191744726563 0.1510990000000001 C 1.4138191744726563 0.14956500000000011 1.4145861744726562 0.14803100000000008 1.4145861744726562 0.14726400000000012 C 1.413052174472656 0.1510990000000001 1.4092171744726563 0.15493400000000013 1.4076831744726561 0.1564680000000001 C 1.4076831744726561 0.1580020000000001 1.4061491744726562 0.16030300000000008 1.4061491744726562 0.15953600000000012 C 1.4061491744726562 0.1580020000000001 1.4069161744726562 0.15723500000000012 1.4069161744726562 0.1564680000000001 C 1.4069161744726562 0.15723500000000012 1.4107511744726562 0.14573000000000008 1.4153531744726562 0.1388270000000001 M 1.4207221744726561 0.1510990000000001 L 1.4253241744726561 0.14496300000000012 C 1.4253241744726561 0.1464970000000001 1.4222561744726563 0.14956500000000011 1.4222561744726563 0.1510990000000001 C 1.4245571744726562 0.1510990000000001 1.4245571744726562 0.14956500000000011 1.4253241744726561 0.14956500000000011 C 1.4253241744726561 0.1587690000000001 1.4199551744726562 0.16413800000000012 1.4153531744726562 0.16950700000000007 C 1.417654174472656 0.16413800000000012 1.4207221744726561 0.1580020000000001 1.4222561744726563 0.1534000000000001 C 1.4222561744726563 0.1510990000000001 1.4207221744726561 0.1510990000000001 1.4207221744726561 0.1510990000000001 M 1.3969451744726562 0.17717700000000008 C 1.3977121744726562 0.1779440000000001 1.3977121744726562 0.17871100000000012 1.3977121744726562 0.17947800000000008 C 1.3977121744726562 0.18408000000000008 1.3923431744726562 0.19558500000000012 1.390042174472656 0.19865300000000008 C 1.390042174472656 0.19635200000000008 1.3908091744726563 0.19328400000000012 1.3908091744726563 0.1902160000000001 C 1.3915761744726562 0.1902160000000001 1.395411174472656 0.18101200000000012 1.3969451744726562 0.17717700000000008 M 1.5495781744726562 0.3973060000000001 C 1.548811174472656 0.3927040000000001 1.5480441744726563 0.39117000000000013 1.5480441744726563 0.39117000000000013 C 1.5480441744726563 0.3904030000000001 1.5472771744726561 0.3827330000000001 1.5472771744726561 0.3827330000000001 C 1.5472771744726561 0.38196600000000014 1.5449761744726562 0.3727620000000001 1.5449761744726562 0.3681600000000001 C 1.5457431744726562 0.3689270000000001 1.5457431744726562 0.3696940000000001 1.5457431744726562 0.3704610000000001 L 1.5457431744726562 0.3673930000000001 C 1.5457431744726562 0.3650920000000001 1.5457431744726562 0.3635580000000001 1.5449761744726562 0.3620240000000001 C 1.5457431744726562 0.3620240000000001 1.5457431744726562 0.3612570000000001 1.5457431744726562 0.3581890000000001 L 1.5503451744726562 0.3996070000000001 C 1.5503451744726562 0.4003740000000001 1.5495781744726562 0.3980730000000001 1.5495781744726562 0.3973060000000001 M 1.5419081744726562 0.3298100000000001 C 1.5426751744726561 0.3344120000000001 1.5442091744726563 0.3420820000000001 1.5442091744726563 0.34821800000000014 L 1.5442091744726563 0.3581890000000001 C 1.543442174472656 0.3581890000000001 1.543442174472656 0.35742200000000013 1.543442174472656 0.3558880000000001 C 1.5426751744726561 0.35435400000000006 1.5426751744726561 0.3535870000000001 1.5426751744726561 0.35282000000000013 L 1.5426751744726561 0.3397810000000001 C 1.5426751744726561 0.3359460000000001 1.5419081744726562 0.3321110000000001 1.5419081744726562 0.3298100000000001 M 1.4069161744726562 0.17717700000000008 C 1.403848174472656 0.1848470000000001 1.399246174472656 0.1894490000000001 1.399246174472656 0.19328400000000012 C 1.399246174472656 0.1917500000000001 1.4007801744726562 0.1902160000000001 1.4030811744726561 0.1902160000000001 C 1.4030811744726561 0.1925170000000001 1.4069161744726562 0.1802450000000001 1.4069161744726562 0.17717700000000008 M 1.4061491744726562 0.19405100000000008 C 1.4061491744726562 0.1902160000000001 1.408450174472656 0.18638100000000007 1.4107511744726562 0.18408000000000008 C 1.4092171744726563 0.18638100000000007 1.4092171744726563 0.1879150000000001 1.408450174472656 0.1894490000000001 C 1.4092171744726563 0.19098300000000012 1.4115181744726562 0.1894490000000001 1.4115181744726562 0.1917500000000001 C 1.4107511744726562 0.1917500000000001 1.4069161744726562 0.19558500000000012 1.4069161744726562 0.19635200000000008 C 1.4069161744726562 0.19558500000000012 1.4061491744726562 0.1948180000000001 1.4061491744726562 0.19405100000000008 M 1.404615174472656 0.1610700000000001 C 1.404615174472656 0.16720600000000008 1.4000131744726563 0.17180800000000013 1.3984791744726561 0.17641000000000012 L 1.399246174472656 0.1733420000000001 C 1.4015471744726562 0.16950700000000007 1.4023141744726562 0.16490500000000008 1.404615174472656 0.1610700000000001 M 1.4122851744726561 0.1679730000000001 C 1.4107511744726562 0.16950700000000007 1.4092171744726563 0.1710410000000001 1.4092171744726563 0.1725750000000001 C 1.4115181744726562 0.1725750000000001 1.4122851744726561 0.16950700000000007 1.4122851744726561 0.1679730000000001 M 1.4115181744726562 0.16260400000000008 C 1.4115181744726562 0.16183700000000012 1.4107511744726562 0.1610700000000001 1.4107511744726562 0.16030300000000008 L 1.4107511744726562 0.1587690000000001 L 1.4069161744726562 0.16720600000000008 C 1.408450174472656 0.16413800000000012 1.4107511744726562 0.16183700000000012 1.4115181744726562 0.16260400000000008 M 1.4053821744726562 0.16950700000000007 C 1.404615174472656 0.1702740000000001 1.404615174472656 0.1710410000000001 1.404615174472656 0.17180800000000013 C 1.404615174472656 0.1710410000000001 1.404615174472656 0.1710410000000001 1.4053821744726562 0.1702740000000001 M 1.4115181744726562 0.1710410000000001 C 1.4115181744726562 0.1710410000000001 1.4115181744726562 0.17180800000000013 1.4115181744726562 0.17180800000000013 M 2.0520295828906248 0.2960620000000001 C 1.994504582890625 0.2960620000000001 1.935445582890625 0.3091010000000001 1.918571582890625 0.3091010000000001 C 1.911668582890625 0.3075670000000001 1.903998582890625 0.3068000000000001 1.896328582890625 0.3068000000000001 C 1.889425582890625 0.3068000000000001 1.882522582890625 0.3075670000000001 1.875619582890625 0.3114020000000001 C 1.885590582890625 0.2707510000000001 1.913202582890625 0.21782800000000008 1.942348582890625 0.18868200000000013 C 1.9645915828906249 0.1687400000000001 1.985300582890625 0.1534000000000001 2.012145582890625 0.14266200000000012 C 2.015213582890625 0.1441960000000001 2.019048582890625 0.14496300000000012 2.022883582890625 0.14496300000000012 C 2.032087582890625 0.14496300000000012 2.0443595828906247 0.1418950000000001 2.0443595828906247 0.13115700000000008 C 2.0443595828906247 0.1081470000000001 1.989135582890625 0.07286500000000007 1.966125582890625 0.07286500000000007 C 1.963057582890625 0.07286500000000007 1.960756582890625 0.07286500000000007 1.959222582890625 0.0743990000000001 C 1.953853582890625 0.0720980000000001 1.944649582890625 0.06979700000000011 1.9369795828906249 0.06979700000000011 C 1.9331445828906249 0.06979700000000011 1.930076582890625 0.07056400000000007 1.927008582890625 0.07133100000000014 C 1.8295995828906249 0.1058460000000001 1.778210582890625 0.20018700000000011 1.7528995828906249 0.2929940000000001 C 1.740627582890625 0.3397810000000001 1.731423582890625 0.38810200000000006 1.731423582890625 0.4348890000000001 C 1.731423582890625 0.4548310000000001 1.732957582890625 0.4740060000000001 1.736792582890625 0.4931810000000001 C 1.736792582890625 0.4954820000000001 1.737559582890625 0.5000840000000001 1.738326582890625 0.5039190000000001 C 1.745229582890625 0.5545410000000001 1.7981525828906249 0.5905900000000001 1.8472405828906249 0.5905900000000001 C 1.8618135828906248 0.5905900000000001 1.876386582890625 0.5875220000000001 1.889425582890625 0.5806190000000001 C 1.913202582890625 0.5576090000000001 1.950018582890625 0.5537740000000001 1.963824582890625 0.5223270000000001 C 1.994504582890625 0.4770740000000001 1.994504582890625 0.4241510000000001 2.0113785828906248 0.3742960000000001 L 2.0113785828906248 0.3650920000000001 C 2.0075435828906247 0.3781310000000001 1.993737582890625 0.4164810000000001 1.989902582890625 0.4364230000000001 C 1.993737582890625 0.4072770000000001 2.003708582890625 0.38580100000000006 2.010611582890625 0.3597230000000001 C 2.023650582890625 0.35205300000000006 2.032087582890625 0.3535870000000001 2.048194582890625 0.3512860000000001 C 2.059699582890625 0.35051900000000014 2.0758065828906247 0.35051900000000014 2.085777582890625 0.3459170000000001 C 2.094214582890625 0.3459170000000001 2.104185582890625 0.34515000000000007 2.110321582890625 0.3413150000000001 C 2.110321582890625 0.3405480000000001 2.115690582890625 0.3382470000000001 2.115690582890625 0.3374800000000001 L 2.112622582890625 0.3374800000000001 C 2.112622582890625 0.3367130000000001 2.115690582890625 0.3359460000000001 2.1149235828906248 0.3351790000000001 C 2.106486582890625 0.3367130000000001 2.106486582890625 0.3374800000000001 2.104952582890625 0.3374800000000001 C 2.104185582890625 0.3374800000000001 2.109554582890625 0.3344120000000001 2.109554582890625 0.3321110000000001 C 2.108020582890625 0.3321110000000001 2.103418582890625 0.3328780000000001 2.098816582890625 0.3328780000000001 C 2.096515582890625 0.3313440000000001 2.094214582890625 0.3305770000000001 2.091913582890625 0.3305770000000001 C 2.090379582890625 0.3305770000000001 2.088078582890625 0.3305770000000001 2.086544582890625 0.3298100000000001 C 2.089612582890625 0.3275090000000001 2.094214582890625 0.3259750000000001 2.094214582890625 0.3229070000000001 C 2.094214582890625 0.3221400000000001 2.099583582890625 0.3213730000000001 2.1018845828906247 0.3213730000000001 C 2.102651582890625 0.3213730000000001 2.104952582890625 0.3221400000000001 2.104185582890625 0.3213730000000001 C 2.1018845828906247 0.3206060000000001 2.101117582890625 0.3198390000000001 2.101117582890625 0.3190720000000001 C 2.101117582890625 0.3183050000000001 2.104185582890625 0.3183050000000001 2.1072535828906247 0.3183050000000001 L 2.114156582890625 0.3183050000000001 C 2.113389582890625 0.3213730000000001 2.108020582890625 0.3183050000000001 2.108020582890625 0.3221400000000001 C 2.111088582890625 0.3221400000000001 2.111855582890625 0.3221400000000001 2.111855582890625 0.3229070000000001 C 2.111855582890625 0.3244410000000001 2.109554582890625 0.3259750000000001 2.109554582890625 0.3267420000000001 C 2.109554582890625 0.3275090000000001 2.115690582890625 0.3244410000000001 2.118758582890625 0.3244410000000001 C 2.118758582890625 0.3259750000000001 2.117224582890625 0.3275090000000001 2.117224582890625 0.3282760000000001 C 2.123360582890625 0.3252080000000001 2.121826582890625 0.3183050000000001 2.1241275828906248 0.3137030000000001 C 2.126428582890625 0.3137030000000001 2.125661582890625 0.3129360000000001 2.126428582890625 0.3129360000000001 C 2.124894582890625 0.3098680000000001 2.126428582890625 0.3068000000000001 2.121826582890625 0.3052660000000001 C 2.101117582890625 0.2983630000000001 2.076573582890625 0.2960620000000001 2.0520295828906248 0.2960620000000001 M 1.8656485828906249 0.5223270000000001 C 1.853376582890625 0.5016180000000001 1.8518425828906249 0.4678700000000001 1.8518425828906249 0.44409300000000007 C 1.8518425828906249 0.4049760000000001 1.857978582890625 0.3658590000000001 1.8702505828906248 0.3305770000000001 C 1.871017582890625 0.3328780000000001 1.8740855828906249 0.3390140000000001 1.877153582890625 0.3397810000000001 C 1.876386582890625 0.3405480000000001 1.882522582890625 0.3413150000000001 1.882522582890625 0.34284900000000007 C 1.8832895828906249 0.34284900000000007 1.880221582890625 0.3443830000000001 1.880221582890625 0.3459170000000001 C 1.882522582890625 0.3466840000000001 1.889425582890625 0.3489850000000001 1.889425582890625 0.35051900000000014 C 1.889425582890625 0.35282000000000013 1.891726582890625 0.35282000000000013 1.8924935828906249 0.35282000000000013 C 1.8924935828906249 0.35435400000000006 1.891726582890625 0.35435400000000006 1.891726582890625 0.35512100000000013 C 1.891726582890625 0.3558880000000001 1.894027582890625 0.35742200000000013 1.894794582890625 0.3589560000000001 C 1.8970955828906249 0.3597230000000001 1.898629582890625 0.3604900000000001 1.9009305828906249 0.3604900000000001 C 1.9016975828906248 0.3620240000000001 1.9009305828906249 0.3650920000000001 1.904765582890625 0.3650920000000001 C 1.907066582890625 0.3666260000000001 1.907833582890625 0.3673930000000001 1.909367582890625 0.3673930000000001 C 1.911668582890625 0.3673930000000001 1.9147365828906249 0.3658590000000001 1.916270582890625 0.3658590000000001 C 1.917037582890625 0.3681600000000001 1.918571582890625 0.3696940000000001 1.918571582890625 0.3712280000000001 C 1.917037582890625 0.3712280000000001 1.923173582890625 0.3773640000000001 1.925474582890625 0.3773640000000001 C 1.917804582890625 0.41264600000000007 1.891726582890625 0.5016180000000001 1.8656485828906249 0.5223270000000001 M 2.109554582890625 0.3129360000000001 C 2.111088582890625 0.3137030000000001 2.113389582890625 0.3144700000000001 2.113389582890625 0.3152370000000001 C 2.112622582890625 0.3152370000000001 2.110321582890625 0.3167710000000001 2.108787582890625 0.3167710000000001 C 2.108787582890625 0.3167710000000001 2.109554582890625 0.3152370000000001 2.109554582890625 0.3129360000000001 M 2.115690582890625 0.3206060000000001 C 2.1149235828906248 0.3206060000000001 2.114156582890625 0.3198390000000001 2.114156582890625 0.3183050000000001 L 2.117224582890625 0.3183050000000001 C 2.117224582890625 0.3198390000000001 2.116457582890625 0.3206060000000001 2.115690582890625 0.3206060000000001 M 2.4240763853515626 0.5629780000000001 C 2.423309385351563 0.561444 2.423309385351563 0.5606770000000001 2.4210083853515627 0.5583760000000001 C 2.4202413853515625 0.5576090000000001 2.4225423853515626 0.5576090000000001 2.4240763853515626 0.5576090000000001 C 2.4248433853515627 0.5576090000000001 2.4256103853515625 0.5583760000000001 2.4263773853515627 0.5583760000000001 C 2.4087363853515624 0.5108220000000001 2.3849593853515625 0.4648020000000001 2.3596483853515626 0.4210830000000001 C 2.3282013853515626 0.3681600000000001 2.3036573853515625 0.3083340000000001 2.275278385351563 0.2600130000000001 C 2.3243663853515626 0.2454400000000001 2.3719203853515625 0.2047890000000001 2.3719203853515625 0.16030300000000008 C 2.3719203853515625 0.09971000000000008 2.306725385351563 0.0743990000000001 2.269909385351563 0.07056400000000007 C 2.253035385351563 0.062127000000000154 2.2553363853515624 0.055991000000000124 2.2445983853515625 0.053690000000000127 C 2.2430643853515626 0.053690000000000127 2.2415303853515627 0.053690000000000127 2.2407633853515625 0.05522400000000005 C 2.2353943853515625 0.05445700000000009 2.2307923853515628 0.053690000000000127 2.2261903853515626 0.053690000000000127 C 2.2223553853515625 0.05445700000000009 2.2192873853515627 0.05445700000000009 2.2154523853515626 0.05445700000000009 C 2.2039473853515625 0.05445700000000009 2.1916753853515627 0.05292300000000005 2.1801703853515626 0.05292300000000005 C 2.1678983853515628 0.05292300000000005 2.1556263853515625 0.05445700000000009 2.1456553853515627 0.06289400000000012 C 2.1418203853515627 0.07286500000000007 2.1211113853515626 0.06519500000000011 2.116509385351563 0.0790010000000001 C 2.116509385351563 0.08053500000000013 2.1142083853515627 0.08053500000000013 2.1142083853515627 0.08206900000000006 C 2.1157423853515627 0.08283600000000013 2.1172763853515626 0.08283600000000013 2.118043385351563 0.08283600000000013 C 2.1203443853515624 0.08283600000000013 2.1226453853515626 0.08206900000000006 2.1241793853515625 0.08206900000000006 C 2.1234123853515627 0.0836030000000001 2.121878385351563 0.0836030000000001 2.121878385351563 0.0836030000000001 C 2.1234123853515627 0.08590400000000009 2.1241793853515625 0.08590400000000009 2.1264803853515626 0.08590400000000009 C 2.118043385351563 0.2600130000000001 2.0842953853515627 0.4088110000000001 2.0804603853515626 0.5737160000000001 C 2.0804603853515626 0.5898230000000001 2.0804603853515626 0.6082310000000001 2.0965673853515625 0.6082310000000001 C 2.0965673853515625 0.6082310000000001 2.0965673853515625 0.595192 2.1027033853515626 0.595192 C 2.1050043853515628 0.595192 2.1103733853515627 0.5890560000000001 2.1134413853515626 0.5890560000000001 C 2.1134413853515626 0.5898230000000001 2.112674385351563 0.5913570000000001 2.112674385351563 0.5921240000000001 C 2.1134413853515626 0.5921240000000001 2.1203443853515624 0.5898230000000001 2.1241793853515625 0.5882890000000001 C 2.1241793853515625 0.5882890000000001 2.1249463853515627 0.5890560000000001 2.1264803853515626 0.5890560000000001 C 2.1295483853515624 0.5890560000000001 2.1356843853515626 0.5882890000000001 2.1379853853515627 0.5859880000000001 C 2.1395193853515626 0.5859880000000001 2.1410533853515625 0.5852210000000001 2.1418203853515627 0.5852210000000001 C 2.1425873853515625 0.5867550000000001 2.144121385351563 0.5852210000000001 2.144121385351563 0.5875220000000001 C 2.144121385351563 0.5905900000000001 2.1448883853515626 0.5913570000000001 2.1448883853515626 0.5913570000000001 C 2.1464223853515625 0.5913570000000001 2.1464223853515625 0.5905900000000001 2.1464223853515625 0.5890560000000001 C 2.1464223853515625 0.5852210000000001 2.1471893853515627 0.5852210000000001 2.147956385351563 0.5852210000000001 C 2.149490385351563 0.5852210000000001 2.149490385351563 0.5859880000000001 2.149490385351563 0.5867550000000001 C 2.149490385351563 0.5875220000000001 2.1517913853515624 0.5852210000000001 2.153325385351563 0.5852210000000001 C 2.153325385351563 0.5875220000000001 2.1525583853515626 0.5905900000000001 2.1525583853515626 0.5905900000000001 C 2.1540923853515626 0.5905900000000001 2.1579273853515626 0.5836870000000001 2.1586943853515628 0.5836870000000001 C 2.1594613853515625 0.5836870000000001 2.1594613853515625 0.5859880000000001 2.1594613853515625 0.5859880000000001 C 2.1594613853515625 0.5859880000000001 2.1609953853515624 0.5852210000000001 2.1609953853515624 0.5829200000000001 C 2.1617623853515626 0.5829200000000001 2.162529385351563 0.5844540000000001 2.1632963853515625 0.5852210000000001 C 2.1655973853515627 0.5852210000000001 2.1648303853515625 0.5890560000000001 2.1671313853515626 0.5890560000000001 C 2.1671313853515626 0.5875220000000001 2.1671313853515626 0.5867550000000001 2.1678983853515628 0.5859880000000001 C 2.1678983853515628 0.5852210000000001 2.1701993853515624 0.5852210000000001 2.1701993853515624 0.5852210000000001 C 2.1701993853515624 0.5867550000000001 2.1732673853515627 0.5859880000000001 2.1732673853515627 0.5875220000000001 C 2.1732673853515627 0.5875220000000001 2.1870733853515625 0.5844540000000001 2.188607385351563 0.5844540000000001 C 2.1932093853515626 0.5844540000000001 2.1962773853515625 0.5844540000000001 2.1962773853515625 0.5890560000000001 C 2.1962773853515625 0.5882890000000001 2.1970443853515627 0.5859880000000001 2.197811385351563 0.5859880000000001 C 2.197811385351563 0.5859880000000001 2.197811385351563 0.5867550000000001 2.2001123853515625 0.5882890000000001 C 2.2062483853515626 0.5882890000000001 2.2261903853515626 0.3620240000000001 2.2284913853515627 0.3443830000000001 C 2.253035385351563 0.4026750000000001 2.3251333853515628 0.5338320000000001 2.3412403853515626 0.561444 C 2.347376385351563 0.5714150000000001 2.3527453853515627 0.5767840000000001 2.3634833853515627 0.5806190000000001 C 2.3650173853515626 0.5790850000000001 2.369619385351563 0.5798520000000001 2.369619385351563 0.5767840000000001 C 2.369619385351563 0.5767840000000001 2.369619385351563 0.5760170000000001 2.3688523853515626 0.5744830000000001 L 2.3749883853515628 0.5775510000000001 C 2.3742213853515626 0.5767840000000001 2.3726873853515627 0.5737160000000001 2.3726873853515627 0.5714150000000001 C 2.3726873853515627 0.570648 2.3780563853515626 0.5775510000000001 2.3818913853515626 0.5775510000000001 C 2.3818913853515626 0.5767840000000001 2.3834253853515626 0.5790850000000001 2.3841923853515627 0.5806190000000001 C 2.3841923853515627 0.5775510000000001 2.3834253853515626 0.5760170000000001 2.3834253853515626 0.5737160000000001 C 2.3834253853515626 0.5744830000000001 2.3857263853515627 0.5767840000000001 2.3872603853515626 0.5767840000000001 C 2.3872603853515626 0.5737160000000001 2.3872603853515626 0.5729490000000002 2.3887943853515625 0.5729490000000002 C 2.3872603853515626 0.570648 2.386493385351563 0.568347 2.386493385351563 0.568347 C 2.391862385351563 0.5721820000000001 2.391862385351563 0.5744830000000001 2.3979983853515625 0.5744830000000001 C 2.399532385351563 0.5744830000000001 2.4002993853515626 0.5744830000000001 2.4002993853515626 0.5737160000000001 C 2.4002993853515626 0.5729490000000002 2.3987653853515627 0.570648 2.3987653853515627 0.5698810000000001 C 2.3979983853515625 0.5675800000000001 2.3972313853515628 0.5652790000000001 2.3972313853515628 0.5629780000000001 C 2.4002993853515626 0.5645120000000001 2.401066385351563 0.5652790000000001 2.4018333853515625 0.5652790000000001 C 2.4026003853515627 0.5652790000000001 2.4033673853515625 0.5645120000000001 2.404901385351563 0.5645120000000001 C 2.4033673853515625 0.5629780000000001 2.4033673853515625 0.5606770000000001 2.4033673853515625 0.5591430000000001 C 2.4056683853515626 0.5591430000000001 2.4087363853515624 0.5629780000000001 2.410270385351563 0.5652790000000001 L 2.410270385351563 0.5591430000000001 C 2.4110373853515625 0.5591430000000001 2.4164063853515625 0.5606770000000001 2.4171733853515627 0.561444 C 2.4171733853515627 0.5606770000000001 2.4171733853515627 0.5599100000000001 2.4187073853515626 0.5599100000000001 C 2.4217753853515624 0.5606770000000001 2.4225423853515626 0.5629780000000001 2.4240763853515626 0.5629780000000001 M 2.2399963853515628 0.2285660000000001 C 2.2399963853515628 0.2254980000000001 2.2407633853515625 0.2231970000000001 2.2407633853515625 0.22012900000000007 C 2.2445983853515625 0.18101200000000012 2.2492003853515627 0.14496300000000012 2.2561033853515626 0.1081470000000001 C 2.2783463853515626 0.10891400000000012 2.315929385351563 0.1227200000000001 2.315929385351563 0.1510990000000001 C 2.315929385351563 0.1848470000000001 2.2829483853515624 0.21476000000000012 2.2399963853515628 0.2285660000000001 M 2.1111403853515625 0.4686370000000001 C 2.112674385351563 0.4701710000000001 2.112674385351563 0.4709380000000001 2.112674385351563 0.4724720000000001 C 2.112674385351563 0.4747730000000001 2.1119073853515626 0.4763070000000001 2.1111403853515625 0.47784100000000007 C 2.1134413853515626 0.47784100000000007 2.1134413853515626 0.4770740000000001 2.1149753853515625 0.4770740000000001 L 2.1149753853515625 0.4954820000000001 C 2.1157423853515627 0.4939480000000001 2.116509385351563 0.4878120000000001 2.1172763853515626 0.4878120000000001 C 2.1172763853515626 0.4893460000000001 2.116509385351563 0.49241400000000013 2.116509385351563 0.4939480000000001 L 2.1188103853515625 0.4954820000000001 C 2.1188103853515625 0.4977830000000001 2.116509385351563 0.5000840000000001 2.116509385351563 0.5008510000000002 C 2.116509385351563 0.5000840000000001 2.1134413853515626 0.5046860000000001 2.1119073853515626 0.5069870000000001 C 2.1096063853515625 0.5046860000000001 2.108839385351563 0.5016180000000001 2.108839385351563 0.4985500000000001 C 2.108839385351563 0.4939480000000001 2.1103733853515627 0.4885790000000001 2.1103733853515627 0.4855110000000001 C 2.1103733853515627 0.4839770000000001 2.1096063853515625 0.4809090000000001 2.1096063853515625 0.4786080000000001 C 2.1096063853515625 0.4747730000000001 2.1103733853515627 0.4717050000000001 2.1111403853515625 0.4686370000000001 M 2.1027033853515626 0.507754 C 2.1042373853515626 0.5069870000000001 2.103470385351563 0.5054530000000002 2.1065383853515627 0.5054530000000002 L 2.1065383853515627 0.5085210000000001 C 2.1065383853515627 0.5108220000000001 2.1057713853515625 0.5108220000000001 2.1050043853515628 0.5108220000000001 C 2.1042373853515626 0.5154240000000001 2.103470385351563 0.5192590000000001 2.1019363853515625 0.5238610000000001 C 2.1019363853515625 0.5223270000000001 2.1011693853515627 0.5200260000000001 2.1011693853515627 0.5177250000000001 C 2.1011693853515627 0.5146570000000001 2.1019363853515625 0.5108220000000001 2.1027033853515626 0.507754 M 2.1096063853515625 0.5369000000000002 C 2.1103733853515627 0.5376670000000001 2.1103733853515627 0.5384340000000001 2.1103733853515627 0.539201 C 2.1103733853515627 0.5407350000000001 2.1096063853515625 0.5415020000000001 2.1096063853515625 0.5438030000000001 C 2.1080723853515626 0.5430360000000001 2.1073053853515624 0.5399680000000001 2.1073053853515624 0.5399680000000001 C 2.1073053853515624 0.5369000000000002 2.108839385351563 0.527696 2.1103733853515627 0.5269290000000001 C 2.1103733853515627 0.5284630000000001 2.1111403853515625 0.529997 2.1111403853515625 0.5315310000000001 C 2.1111403853515625 0.5338320000000001 2.1103733853515627 0.5353660000000001 2.1096063853515625 0.5369000000000002 M 2.1073053853515624 0.5622110000000001 C 2.1073053853515624 0.561444 2.1065383853515627 0.5606770000000001 2.1065383853515627 0.5599100000000001 C 2.1065383853515627 0.5591430000000001 2.1080723853515626 0.5591430000000001 2.108839385351563 0.5591430000000001 C 2.108839385351563 0.5576090000000001 2.1073053853515624 0.5568420000000001 2.1073053853515624 0.5568420000000001 C 2.1065383853515627 0.5553080000000001 2.1057713853515625 0.5545410000000001 2.1057713853515625 0.5537740000000001 C 2.1057713853515625 0.5522400000000001 2.108839385351563 0.5568420000000001 2.108839385351563 0.5553080000000001 L 2.1103733853515627 0.5591430000000001 L 2.108839385351563 0.561444 C 2.1111403853515625 0.561444 2.1111403853515625 0.5622110000000001 2.1111403853515625 0.5629780000000001 C 2.1111403853515625 0.5645120000000001 2.1103733853515627 0.5668130000000001 2.1103733853515627 0.5675800000000001 C 2.1096063853515625 0.568347 2.108839385351563 0.568347 2.1080723853515626 0.568347 C 2.1080723853515626 0.5675800000000001 2.1073053853515624 0.5622110000000001 2.1073053853515624 0.5622110000000001 M 2.1111403853515625 0.5169580000000001 C 2.112674385351563 0.5177250000000001 2.1134413853515626 0.5192590000000001 2.1134413853515626 0.5207930000000001 C 2.1134413853515626 0.5223270000000001 2.112674385351563 0.5238610000000001 2.112674385351563 0.5246280000000001 C 2.1111403853515625 0.5253950000000001 2.1096063853515625 0.5253950000000001 2.1096063853515625 0.5253950000000001 C 2.1096063853515625 0.5246280000000001 2.1096063853515625 0.5238610000000001 2.108839385351563 0.5230940000000001 C 2.1096063853515625 0.5215600000000001 2.1096063853515625 0.5207930000000001 2.1096063853515625 0.5200260000000001 M 2.116509385351563 0.4602000000000001 C 2.1172763853515626 0.4609670000000001 2.1172763853515626 0.4648020000000001 2.1172763853515626 0.4663360000000001 C 2.1157423853515627 0.4663360000000001 2.1157423853515627 0.4648020000000001 2.1157423853515627 0.4632680000000001 C 2.1157423853515627 0.4617340000000001 2.1157423853515627 0.4609670000000001 2.116509385351563 0.4602000000000001 M 2.1203443853515624 0.5138900000000001 C 2.1211113853515626 0.5138900000000001 2.1195773853515627 0.5161910000000001 2.1195773853515627 0.5177250000000001 C 2.1188103853515625 0.5169580000000001 2.118043385351563 0.5161910000000001 2.118043385351563 0.5154240000000001 C 2.118043385351563 0.5146570000000001 2.1188103853515625 0.5138900000000001 2.1203443853515624 0.5138900000000001 M 2.1249463853515627 0.5530070000000001 C 2.1241793853515625 0.5499390000000001 2.1241793853515625 0.5484050000000001 2.1241793853515625 0.5476380000000001 C 2.1249463853515627 0.5476380000000001 2.125713385351563 0.5491720000000001 2.125713385351563 0.5499390000000001 C 2.125713385351563 0.5514730000000001 2.1249463853515627 0.5522400000000001 2.1249463853515627 0.5530070000000001 M 2.1234123853515627 0.5008510000000002 C 2.1234123853515627 0.5023850000000001 2.1234123853515627 0.5039190000000001 2.121878385351563 0.5054530000000002 C 2.121878385351563 0.5039190000000001 2.1226453853515626 0.5000840000000001 2.1234123853515627 0.5008510000000002 M 2.1019363853515625 0.5238610000000001 C 2.1027033853515626 0.5238610000000001 2.1027033853515626 0.5261620000000001 2.1027033853515626 0.5261620000000001 C 2.1027033853515626 0.5261620000000001 2.1019363853515625 0.5253950000000001 2.1019363853515625 0.5238610000000001 M 2.8314272840039063 0.08590400000000009 C 2.8406312840039067 0.06672900000000015 2.8705442840039064 0.03911700000000007 2.8897192840039065 0.014573000000000058 C 2.8874182840039064 0.014573000000000058 2.8835832840039064 0.016874000000000056 2.8820492840039065 0.019175000000000053 C 2.8820492840039065 0.016874000000000056 2.8812822840039063 0.016874000000000056 2.8812822840039063 0.016874000000000056 C 2.8805152840039066 0.016874000000000056 2.8759132840039063 0.016874000000000056 2.8743792840039064 0.01840800000000009 C 2.8705442840039064 0.01840800000000009 2.8690102840039065 0.022243000000000124 2.8674762840039065 0.023777000000000048 C 2.8674762840039065 0.01840800000000009 2.8705442840039064 0.01764100000000013 2.8728452840039065 0.015340000000000131 L 2.8705442840039064 0.015340000000000131 C 2.8705442840039064 0.011505000000000098 2.8805152840039066 0.009204000000000101 2.8835832840039064 1.1102230246251565e-16 L 2.8697772840039066 0.0069030000000001035 C 2.8544372840039065 0.0069030000000001035 2.8475342840039066 0.02147600000000005 2.8337282840039064 0.02684500000000012 C 2.7716012840039066 0.0767000000000001 2.7209792840039064 0.14036100000000012 2.6695902840039065 0.20555600000000007 L 2.6565512840039065 0.22243000000000007 C 2.6373762840039063 0.1779440000000001 2.6020942840039067 0.0836030000000001 2.5583752840039065 0.05445700000000009 C 2.5530062840039065 0.050622000000000056 2.5461032840039066 0.046787000000000134 2.5392002840039067 0.046787000000000134 C 2.5292292840039066 0.046787000000000134 2.5315302840039067 0.049855000000000094 2.5223262840039067 0.055991000000000124 C 2.5161902840039065 0.06059300000000012 2.5016172840039066 0.06749600000000011 2.4977822840039066 0.0743990000000001 C 2.4962482840039066 0.0767000000000001 2.4908792840039067 0.08206900000000006 2.4901122840039065 0.08513700000000013 C 2.4855102840039067 0.08667100000000005 2.4809082840039065 0.0935740000000001 2.4770732840039065 0.09664200000000012 C 2.4686362840039067 0.10354500000000011 2.4717042840039065 0.10891400000000012 2.4663352840039066 0.11351600000000012 C 2.4640342840039064 0.1150500000000001 2.4640342840039064 0.11811800000000011 2.4640342840039064 0.12118600000000013 L 2.4640342840039064 0.12578800000000012 C 2.4640342840039064 0.1372930000000001 2.4709372840039063 0.1510990000000001 2.4824422840039064 0.17180800000000013 C 2.5169572840039067 0.23163400000000012 2.5514722840039066 0.3152370000000001 2.5691132840039064 0.3581890000000001 C 2.5445692840039067 0.3950050000000001 2.4824422840039064 0.5039190000000001 2.4824422840039064 0.5560750000000001 L 2.4824422840039064 0.5606770000000001 C 2.4824422840039064 0.5629780000000001 2.4824422840039064 0.566046 2.4847432840039065 0.566046 C 2.4908792840039067 0.566046 2.4985492840039063 0.5545410000000001 2.5008502840039064 0.5461040000000001 C 2.5008502840039064 0.5461040000000001 2.5039182840039067 0.5468710000000001 2.5039182840039067 0.5491720000000001 C 2.5023842840039063 0.5499390000000001 2.5023842840039063 0.5507060000000001 2.5023842840039063 0.5514730000000001 C 2.5023842840039063 0.5530070000000001 2.5031512840039065 0.5545410000000001 2.5031512840039065 0.5560750000000001 C 2.5131222840039067 0.5530070000000001 2.5115882840039063 0.5384340000000001 2.5184912840039066 0.5353660000000001 C 2.5184912840039066 0.5376670000000001 2.5184912840039066 0.5476380000000001 2.5192582840039064 0.5476380000000001 C 2.5223262840039067 0.5476380000000001 2.5345982840039065 0.5253950000000001 2.5399672840039065 0.5253950000000001 C 2.5407342840039067 0.5253950000000001 2.5415012840039064 0.5261620000000001 2.5422682840039066 0.527696 L 2.5537732840039067 0.5115890000000001 C 2.5568412840039065 0.5115890000000001 2.5599092840039064 0.5100550000000001 2.5614432840039063 0.5085210000000001 C 2.5629772840039067 0.5062200000000001 2.5645112840039066 0.5062200000000001 2.5645112840039066 0.503152 C 2.5645112840039066 0.503152 2.5660452840039065 0.5008510000000002 2.5660452840039065 0.4993170000000001 C 2.5675792840039064 0.4993170000000001 2.5698802840039066 0.5023850000000001 2.5698802840039066 0.5023850000000001 C 2.5721812840039067 0.5023850000000001 2.5913562840039064 0.4594330000000001 2.6059292840039063 0.4410250000000001 C 2.6159002840039065 0.4671030000000001 2.6902992840039066 0.642746 2.7025712840039064 0.6849310000000001 L 2.7025712840039064 0.674193 C 2.7048722840039066 0.674193 2.7056392840039063 0.6734260000000001 2.7056392840039063 0.6718920000000002 C 2.7056392840039063 0.6703580000000001 2.7048722840039066 0.66729 2.7048722840039066 0.6657560000000001 C 2.7048722840039066 0.6642220000000001 2.7048722840039066 0.6634550000000001 2.7064062840039065 0.662688 C 2.7064062840039065 0.6680570000000001 2.7064062840039065 0.6703580000000001 2.7087072840039066 0.6703580000000001 C 2.7140762840039065 0.6703580000000001 2.7102412840039065 0.664989 2.7179112840039066 0.664989 C 2.7286492840039065 0.664989 2.7248142840039065 0.6573190000000001 2.7263482840039064 0.6496490000000001 C 2.7278822840039068 0.6519500000000001 2.7324842840039065 0.6511830000000001 2.7332512840039067 0.6527170000000001 C 2.7332512840039067 0.6465810000000001 2.7439892840039066 0.6220370000000001 2.7462902840039067 0.6197360000000001 C 2.7485912840039064 0.6220370000000001 2.7531932840039066 0.6243380000000001 2.7554942840039063 0.6258720000000001 C 2.7554942840039063 0.6228040000000001 2.7531932840039066 0.6205030000000001 2.7531932840039066 0.6174350000000001 C 2.7562612840039065 0.6174350000000001 2.7593292840039068 0.6197360000000001 2.7600962840039065 0.6228040000000001 L 2.7600962840039065 0.6182020000000001 C 2.7600962840039065 0.6166680000000001 2.7600962840039065 0.6159010000000001 2.7616302840039064 0.6151340000000001 C 2.7616302840039064 0.6174350000000001 2.7631642840039063 0.6166680000000001 2.7646982840039067 0.6220370000000001 C 2.7669992840039064 0.6189690000000001 2.7654652840039065 0.6120660000000001 2.7677662840039066 0.6074640000000001 C 2.7685332840039063 0.6136000000000001 2.7693002840039065 0.6166680000000001 2.7708342840039064 0.6166680000000001 C 2.7723682840039063 0.6166680000000001 2.7739022840039067 0.6128330000000001 2.7754362840039066 0.6051630000000001 C 2.7754362840039066 0.6143670000000001 2.7785042840039065 0.6182020000000001 2.7861742840039065 0.6182020000000001 C 2.7900092840039066 0.6182020000000001 2.7900092840039066 0.6136000000000001 2.7900092840039066 0.6059300000000001 C 2.7900092840039066 0.527696 2.7002702840039063 0.34284900000000007 2.6918332840039065 0.3052660000000001 C 2.7248142840039065 0.24850800000000012 2.8490682840039065 0.08820500000000009 2.8490682840039065 0.08437000000000006 C 2.8506022840039065 0.08283600000000013 2.8513692840039067 0.08206900000000006 2.8513692840039067 0.0813020000000001 C 2.8506022840039065 0.0813020000000001 2.8475342840039066 0.08206900000000006 2.8460002840039067 0.08283600000000013 C 2.8452332840039065 0.0836030000000001 2.8521362840039064 0.07593300000000014 2.8567382840039066 0.06903000000000015 C 2.8582722840039065 0.06903000000000015 2.8590392840039067 0.06826300000000007 2.8590392840039067 0.06749600000000011 C 2.8613402840039064 0.06442800000000015 2.8621072840039066 0.06136000000000008 2.8621072840039066 0.059826000000000046 C 2.8621072840039066 0.056758000000000086 2.8413982840039065 0.08820500000000009 2.8352622840039063 0.08743800000000013 L 2.8306602840039066 0.0935740000000001 C 2.8252912840039066 0.0935740000000001 2.8291262840039066 0.1004770000000001 2.8229902840039065 0.1004770000000001 C 2.8229902840039065 0.09204000000000012 2.8383302840039066 0.08667100000000005 2.8383302840039066 0.07823400000000014 C 2.8360292840039065 0.07976800000000006 2.8337282840039064 0.0836030000000001 2.8314272840039063 0.08590400000000009" fill="#ffffff" fill-rule="nonzero"></path></g><g transform="matrix(1,0,0,1,0,0)"></g></g><defs><clipPath id="SvgjsClipPath29499"><path d=" M -0.9152849629137307 -2.016522612728184 h 4.622868225456368 v 4.622868225456368 h -4.622868225456368 Z"></path></clipPath></defs></svg>