<svg xmlns="http://www.w3.org/2000/svg" version="1.1" xmlns:xlink="http://www.w3.org/1999/xlink"
     xmlns:svgjs="http://svgjs.dev/svgjs" viewBox="0 0 8.735731277578935 3.433723220938311">
    <g transform="matrix(0.7719971495486836,0,0,0.7719971495486836,3.5640598737379277,1.2716122544669521)">
        <rect width="9.749852485788706" height="9.749852485788706" x="-3.8337232209383107" y="-4.298176242894353"
              fill="#ffffff"></rect>
        <g clip-path="url(#SvgjsClipPath30028)">
            <path d=" M -2.8196020127285397 -0.3342396315762915 L -0.3999999999999997 -0.3342396315762915 L -0.3999999999999997 1.4877396315762916 L -2.8196020127285397 1.4877396315762916 Z"
                  fill="#1a77ff" transform="matrix(1,0,0,1,0,0)" fill-rule="nonzero"
                  mask="url(#maskedMgText-90e69ba7-5ad4-48d9-ac4a-e986a5c36fb3)"></path>
        </g>
        <g>
            <path d=" M 0.525 0.6975000000000002 C 0.5175 0.7695000000000002 0.5085000000000001 0.8340000000000002 0.5085000000000001 0.9030000000000002 C 0.5085000000000001 0.9690000000000002 0.5085000000000001 1.0440000000000003 0.558 1.0950000000000002 C 0.561 1.098 0.5625 1.0815000000000001 0.5625 1.0740000000000003 C 0.5670000000000001 1.0815000000000001 0.5655 1.0860000000000003 0.5760000000000001 1.0905000000000002 C 0.5730000000000001 1.0860000000000003 0.5715 1.0830000000000002 0.5715 1.0815000000000001 C 0.5730000000000001 1.0800000000000003 0.5805 1.0875000000000001 0.5835 1.0905000000000002 C 0.5835 1.0860000000000003 0.582 1.0830000000000002 0.582 1.0800000000000003 C 0.582 1.0755000000000001 0.5835 1.0740000000000003 0.585 1.0740000000000003 C 0.5895 1.0740000000000003 0.597 1.0860000000000003 0.5985 1.0860000000000003 C 0.5985 1.0860000000000003 0.5985 1.0755000000000001 0.5955 1.0710000000000002 C 0.6 1.0710000000000002 0.6045 1.0695000000000001 0.6075 1.0695000000000001 C 0.6105 1.0695000000000001 0.612 1.0710000000000002 0.615 1.0725000000000002 C 0.615 1.0710000000000002 0.618 1.0650000000000002 0.618 1.0650000000000002 C 0.624 1.0665000000000002 0.624 1.0725000000000002 0.6285000000000001 1.0785000000000002 C 0.6285000000000001 1.0740000000000003 0.6315000000000001 1.0725000000000002 0.633 1.0725000000000002 C 0.6345000000000001 1.0830000000000002 0.6435 1.0815000000000001 0.6525 1.0845000000000002 L 0.654 1.0800000000000003 C 0.6615 1.0800000000000003 0.666 1.0860000000000003 0.6705 1.0875000000000001 C 0.6585 1.0785000000000002 0.6555 1.0140000000000002 0.6555 0.9390000000000002 C 0.6555 0.8235000000000001 0.666 0.6810000000000002 0.678 0.6600000000000001 L 0.714 0.6600000000000001 C 0.711 0.6555000000000002 0.711 0.6540000000000001 0.711 0.6540000000000001 C 0.72 0.6540000000000001 0.723 0.6570000000000003 0.7215 0.6555000000000002 L 0.729 0.6555000000000002 C 0.7305 0.6555000000000002 0.723 0.6495000000000002 0.726 0.6495000000000002 C 0.732 0.6495000000000002 0.7365 0.6525000000000002 0.7395 0.6555000000000002 C 0.7425 0.6540000000000001 0.7455 0.6540000000000001 0.747 0.6540000000000001 C 0.7515000000000001 0.6540000000000001 0.756 0.6555000000000002 0.7575000000000001 0.6555000000000002 C 0.759 0.6555000000000002 0.759 0.6540000000000001 0.759 0.6495000000000002 C 0.771 0.6495000000000002 0.765 0.6195000000000002 0.7815 0.6180000000000002 C 0.768 0.6075000000000002 0.738 0.5985000000000001 0.6855 0.5940000000000002 C 0.6990000000000001 0.5250000000000001 0.7020000000000001 0.49350000000000016 0.717 0.41700000000000015 C 0.7245 0.3780000000000002 0.7335 0.3015000000000002 0.7335 0.23250000000000015 C 0.7335 0.17850000000000021 0.729 0.12900000000000023 0.7125 0.10650000000000026 C 0.708 0.10650000000000026 0.7035 0.1080000000000001 0.7020000000000001 0.1080000000000001 C 0.7005 0.1080000000000001 0.6990000000000001 0.10650000000000026 0.6975 0.1050000000000002 C 0.6975 0.10950000000000015 0.6975 0.11100000000000021 0.6960000000000001 0.11100000000000021 C 0.6945 0.11100000000000021 0.6915 0.10650000000000026 0.6900000000000001 0.10650000000000026 C 0.6855 0.10950000000000015 0.6795 0.10950000000000015 0.6735 0.10950000000000015 L 0.6645 0.10950000000000015 C 0.663 0.11100000000000021 0.6615 0.11550000000000016 0.6615 0.11550000000000016 C 0.6525 0.11550000000000016 0.6585 0.12900000000000023 0.654 0.12900000000000023 C 0.6495 0.12900000000000023 0.6465 0.1260000000000001 0.6435 0.1200000000000001 C 0.642 0.1260000000000001 0.6315000000000001 0.13350000000000017 0.6255000000000001 0.13350000000000017 C 0.6165 0.13350000000000017 0.6195 0.13950000000000018 0.6165 0.14100000000000024 C 0.6165 0.13800000000000012 0.6135 0.13650000000000007 0.6105 0.13650000000000007 C 0.6105 0.13950000000000018 0.6105 0.14250000000000007 0.609 0.14550000000000018 C 0.5745 0.2895000000000002 0.5625 0.4365000000000002 0.537 0.5820000000000002 C 0.4665 0.5790000000000002 0.40650000000000003 0.5745000000000002 0.3435 0.5715000000000002 C 0.34800000000000003 0.48450000000000015 0.3825 0.31800000000000017 0.3825 0.21750000000000014 C 0.3825 0.18000000000000016 0.3765 0.15300000000000025 0.3645 0.14100000000000024 C 0.3615 0.13950000000000018 0.3615 0.13500000000000023 0.3615 0.13050000000000006 C 0.3615 0.1260000000000001 0.3615 0.12300000000000022 0.36 0.12150000000000016 C 0.3585 0.11850000000000027 0.3525 0.10350000000000015 0.34800000000000003 0.10200000000000009 C 0.3435 0.09000000000000008 0.3435 0.07650000000000023 0.327 0.07650000000000023 C 0.324 0.07650000000000023 0.297 0.07950000000000013 0.291 0.08250000000000024 C 0.28350000000000003 0.08850000000000025 0.28350000000000003 0.09150000000000014 0.2775 0.0930000000000002 C 0.273 0.0930000000000002 0.267 0.0990000000000002 0.264 0.10050000000000026 C 0.255 0.10050000000000026 0.249 0.09750000000000014 0.243 0.09750000000000014 C 0.23850000000000002 0.09750000000000014 0.2325 0.0990000000000002 0.2235 0.1050000000000002 C 0.2085 0.1050000000000002 0.20400000000000001 0.13200000000000012 0.1875 0.13200000000000012 C 0.1395 0.27600000000000013 0.1215 0.4275000000000002 0.096 0.5655000000000002 C 0.08700000000000001 0.5655000000000002 0.075 0.5670000000000002 0.07200000000000001 0.5700000000000002 C 0.07200000000000001 0.5700000000000002 0.081 0.5730000000000002 0.081 0.5745000000000002 C 0.07050000000000001 0.5760000000000002 0.018000000000000002 0.5775000000000001 0.018000000000000002 0.5850000000000002 C 0.018000000000000002 0.5865000000000001 0.0195 0.5880000000000002 0.024 0.5895000000000001 C 0.015 0.5895000000000001 0.0105 0.5985000000000001 0.003 0.5985000000000001 C -0.0015 0.6000000000000002 -0.0045000000000000005 0.6030000000000002 -0.0045000000000000005 0.6090000000000002 C -0.0045000000000000005 0.6270000000000002 0.0195 0.6600000000000001 0.027 0.6585000000000002 C 0.063 0.6570000000000003 0.0855 0.6570000000000003 0.0855 0.6570000000000003 C 0.0765 0.7320000000000002 0.054 0.8880000000000001 0.054 0.9975000000000002 C 0.054 1.0230000000000001 0.054 1.0470000000000002 0.057 1.0665000000000002 C 0.0825 1.092 0.078 1.1610000000000003 0.14250000000000002 1.1610000000000003 C 0.147 1.1610000000000003 0.1485 1.1595000000000002 0.1485 1.1595000000000002 C 0.1485 1.1565 0.1455 1.1520000000000001 0.1455 1.1505000000000003 C 0.1515 1.1550000000000002 0.156 1.1580000000000001 0.156 1.1595000000000002 C 0.1635 1.1655000000000002 0.195 1.1715000000000002 0.201 1.1715000000000002 C 0.20550000000000002 1.1715000000000002 0.20700000000000002 1.1745 0.20700000000000002 1.1745 C 0.20700000000000002 1.1730000000000003 0.20700000000000002 1.1655000000000002 0.2085 1.1610000000000003 C 0.21 1.1625 0.2145 1.1640000000000001 0.216 1.1640000000000001 C 0.2205 1.1640000000000001 0.2265 1.1625 0.231 1.1625 C 0.2325 1.1625 0.2475 1.1610000000000003 0.255 1.1610000000000003 C 0.2595 1.1610000000000003 0.264 1.1610000000000003 0.2685 1.1625 L 0.2745 1.1625 C 0.279 1.1625 0.28350000000000003 1.1640000000000001 0.28800000000000003 1.1640000000000001 C 0.291 1.1640000000000001 0.294 1.1625 0.2985 1.1610000000000003 C 0.3015 1.1625 0.309 1.1745 0.312 1.1760000000000002 C 0.3075 1.1730000000000003 0.306 1.1415000000000002 0.306 1.0935000000000001 C 0.306 0.9465000000000001 0.324 0.6525000000000002 0.3345 0.6555000000000002 C 0.393 0.6525000000000002 0.41400000000000003 0.6480000000000001 0.47100000000000003 0.6480000000000001 C 0.4875 0.6480000000000001 0.507 0.6480000000000001 0.5295 0.6495000000000002 L 0.5265 0.6780000000000002 C 0.5265 0.6840000000000002 0.525 0.6915000000000002 0.525 0.6975000000000002 M 1.480491943359375 0.2895000000000002 C 1.481991943359375 0.28200000000000014 1.481991943359375 0.2745000000000002 1.481991943359375 0.2670000000000001 C 1.478991943359375 0.22050000000000014 1.435491943359375 0.19200000000000017 1.388991943359375 0.19200000000000017 C 1.301991943359375 0.19200000000000017 1.298991943359375 0.3045000000000002 1.285491943359375 0.3630000000000002 C 1.187991943359375 0.5415000000000002 1.129491943359375 0.7545000000000002 1.0424919433593751 0.9255000000000002 C 1.039491943359375 0.9345000000000002 1.034991943359375 0.9405000000000002 1.025991943359375 0.9465000000000001 C 1.015491943359375 0.8835000000000002 1.013991943359375 0.8160000000000002 1.013991943359375 0.7515000000000002 C 1.013991943359375 0.6000000000000002 1.031991943359375 0.44550000000000023 1.0664919433593751 0.3075000000000002 C 1.072491943359375 0.28500000000000014 1.078491943359375 0.2595000000000002 1.088991943359375 0.24300000000000022 C 1.108491943359375 0.2220000000000002 1.123491943359375 0.20100000000000018 1.123491943359375 0.17400000000000015 C 1.123491943359375 0.08550000000000013 1.079991943359375 0.060000000000000275 1.019991943359375 0.060000000000000275 C 1.001991943359375 0.060000000000000275 0.9119919433593751 0.060000000000000275 0.889491943359375 0.09600000000000009 C 0.868491943359375 0.11850000000000027 0.857991943359375 0.1545000000000002 0.851991943359375 0.18000000000000016 C 0.808491943359375 0.37050000000000016 0.781491943359375 0.5745000000000002 0.781491943359375 0.7620000000000002 C 0.781491943359375 0.8625000000000003 0.782991943359375 1.1010000000000002 0.914991943359375 1.1010000000000002 C 0.931491943359375 1.1010000000000002 0.961491943359375 1.0845000000000002 0.964491943359375 1.0815000000000001 C 0.973491943359375 1.0815000000000001 1.004991943359375 1.0710000000000002 1.010991943359375 1.0680000000000003 C 1.015491943359375 1.0710000000000002 1.019991943359375 1.0725000000000002 1.021491943359375 1.0725000000000002 C 1.0244919433593749 1.0725000000000002 1.025991943359375 1.0710000000000002 1.025991943359375 1.0680000000000003 C 1.025991943359375 1.0635000000000001 1.030491943359375 1.0605000000000002 1.031991943359375 1.0605000000000002 C 1.033491943359375 1.0620000000000003 1.034991943359375 1.0650000000000002 1.034991943359375 1.0650000000000002 C 1.036491943359375 1.0650000000000002 1.039491943359375 1.0605000000000002 1.040991943359375 1.0590000000000002 C 1.036491943359375 1.0590000000000002 1.030491943359375 1.0590000000000002 1.025991943359375 1.0590000000000002 C 1.025991943359375 1.0545000000000002 1.031991943359375 1.0545000000000002 1.036491943359375 1.0545000000000002 C 1.048491943359375 1.0545000000000002 1.051491943359375 1.0605000000000002 1.060491943359375 1.0605000000000002 C 1.135491943359375 1.0605000000000002 1.192491943359375 0.9270000000000002 1.220991943359375 0.8595000000000002 L 1.225491943359375 0.8475000000000001 C 1.223991943359375 0.8715000000000002 1.214991943359375 0.9330000000000002 1.214991943359375 0.9900000000000002 C 1.214991943359375 1.0320000000000003 1.223991943359375 1.1415000000000002 1.276491943359375 1.1415000000000002 C 1.279491943359375 1.1415000000000002 1.285491943359375 1.1355000000000002 1.2899919433593752 1.1355000000000002 L 1.297491943359375 1.1355000000000002 C 1.301991943359375 1.1340000000000001 1.298991943359375 1.1265000000000003 1.301991943359375 1.1265000000000003 C 1.3049919433593749 1.1265000000000003 1.310991943359375 1.1340000000000001 1.3124919433593751 1.1340000000000001 C 1.313991943359375 1.1340000000000001 1.313991943359375 1.1325000000000003 1.313991943359375 1.1295000000000002 C 1.315491943359375 1.1325000000000003 1.3244919433593751 1.1370000000000002 1.325991943359375 1.1385000000000003 C 1.325991943359375 1.1340000000000001 1.327491943359375 1.1340000000000001 1.327491943359375 1.1340000000000001 C 1.333491943359375 1.1340000000000001 1.334991943359375 1.1400000000000001 1.337991943359375 1.1475000000000002 C 1.337991943359375 1.1400000000000001 1.334991943359375 1.1325000000000003 1.334991943359375 1.122 C 1.3364919433593752 1.1280000000000001 1.337991943359375 1.1385000000000003 1.3409919433593749 1.1385000000000003 C 1.342491943359375 1.1385000000000003 1.343991943359375 1.1370000000000002 1.345491943359375 1.1355000000000002 C 1.346991943359375 1.1400000000000001 1.346991943359375 1.1415000000000002 1.351491943359375 1.1430000000000002 C 1.351491943359375 1.1355000000000002 1.3589919433593751 1.1280000000000001 1.3589919433593751 1.1280000000000001 C 1.3589919433593751 1.1325000000000003 1.3634919433593748 1.1355000000000002 1.364991943359375 1.1385000000000003 L 1.364991943359375 1.1340000000000001 C 1.369491943359375 1.1340000000000001 1.3709919433593751 1.1400000000000001 1.372491943359375 1.1415000000000002 C 1.372491943359375 1.1325000000000003 1.381491943359375 1.1280000000000001 1.3874919433593749 1.1280000000000001 L 1.3874919433593749 1.1415000000000002 C 1.3874919433593749 1.1430000000000002 1.3874919433593749 1.1460000000000001 1.388991943359375 1.1475000000000002 C 1.390491943359375 1.1355000000000002 1.3994919433593749 1.1355000000000002 1.3994919433593749 1.1325000000000003 C 1.400991943359375 1.1355000000000002 1.400991943359375 1.1400000000000001 1.400991943359375 1.1400000000000001 M 2.191519775390625 0.7530000000000001 C 2.193019775390625 0.7530000000000001 2.1975197753906253 0.7530000000000001 2.200519775390625 0.7515000000000002 C 2.196019775390625 0.7500000000000002 2.196019775390625 0.7485000000000002 2.196019775390625 0.7455000000000002 C 2.196019775390625 0.7425000000000002 2.1975197753906253 0.7395000000000002 2.1975197753906253 0.7365000000000002 C 2.1975197753906253 0.7350000000000002 2.1975197753906253 0.7335000000000003 2.194519775390625 0.7335000000000003 L 2.188519775390625 0.7335000000000003 C 2.187019775390625 0.7335000000000003 2.1840197753906248 0.7335000000000003 2.1840197753906248 0.7320000000000002 C 2.1840197753906248 0.7305000000000001 2.1840197753906248 0.7290000000000002 2.185519775390625 0.7275000000000003 C 2.164519775390625 0.7230000000000002 2.155519775390625 0.7200000000000002 2.116519775390625 0.7185000000000001 C 2.1030197753906252 0.5970000000000002 2.0565197753906252 0.19500000000000017 2.023519775390625 0.11850000000000027 C 2.019019775390625 0.11700000000000021 2.016019775390625 0.11700000000000021 2.014519775390625 0.11250000000000027 C 2.0100197753906253 0.11250000000000027 2.008519775390625 0.10950000000000015 2.005519775390625 0.10950000000000015 C 2.005519775390625 0.11700000000000021 2.011519775390625 0.12300000000000022 2.011519775390625 0.1260000000000001 C 2.005519775390625 0.12300000000000022 2.005519775390625 0.11700000000000021 1.9950197753906251 0.11700000000000021 C 1.9950197753906251 0.11250000000000027 1.993519775390625 0.11250000000000027 1.990519775390625 0.10950000000000015 C 1.990519775390625 0.11250000000000027 1.993519775390625 0.11700000000000021 1.993519775390625 0.11700000000000021 C 1.992019775390625 0.11550000000000016 1.998019775390625 0.13200000000000012 2.001019775390625 0.13650000000000007 C 1.9950197753906251 0.13650000000000007 1.993519775390625 0.13050000000000006 1.990519775390625 0.13050000000000006 C 1.984519775390625 0.1260000000000001 1.9830197753906251 0.11700000000000021 1.975519775390625 0.11250000000000027 L 1.975519775390625 0.11850000000000027 C 1.974019775390625 0.11550000000000016 1.974019775390625 0.12300000000000022 1.974019775390625 0.12300000000000022 C 1.974019775390625 0.12300000000000022 1.969519775390625 0.11700000000000021 1.966519775390625 0.11700000000000021 C 1.9710197753906251 0.1200000000000001 1.974019775390625 0.12450000000000028 1.974019775390625 0.12900000000000023 C 1.963519775390625 0.12900000000000023 1.959019775390625 0.1200000000000001 1.954519775390625 0.11250000000000027 C 1.954519775390625 0.11700000000000021 1.947019775390625 0.11550000000000016 1.947019775390625 0.11700000000000021 C 1.944019775390625 0.11700000000000021 1.944019775390625 0.1140000000000001 1.944019775390625 0.1140000000000001 C 1.942519775390625 0.1140000000000001 1.9365197753906251 0.11250000000000027 1.9365197753906251 0.11250000000000027 C 1.917019775390625 0.10200000000000009 1.9365197753906251 0.09600000000000009 1.915519775390625 0.08850000000000025 L 1.908019775390625 0.08850000000000025 C 1.7955197753906251 0.08850000000000025 1.732519775390625 0.2925000000000002 1.690519775390625 0.3660000000000002 C 1.636519775390625 0.49050000000000016 1.584019775390625 0.6075000000000002 1.542019775390625 0.7260000000000002 C 1.534519775390625 0.7320000000000002 1.519519775390625 0.7485000000000002 1.519519775390625 0.7635000000000002 C 1.519519775390625 0.7680000000000002 1.521019775390625 0.7725000000000002 1.524019775390625 0.7770000000000001 C 1.504519775390625 0.8265000000000002 1.461019775390625 0.9510000000000002 1.461019775390625 0.9885000000000002 C 1.458019775390625 1.0035000000000003 1.456519775390625 1.0170000000000001 1.456519775390625 1.0305000000000002 C 1.456519775390625 1.0515 1.461019775390625 1.0740000000000003 1.468519775390625 1.0965000000000003 L 1.479019775390625 1.1055000000000001 L 1.492519775390625 1.1130000000000002 C 1.494019775390625 1.1400000000000001 1.510519775390625 1.1280000000000001 1.525519775390625 1.1430000000000002 C 1.540519775390625 1.1460000000000001 1.537519775390625 1.1475000000000002 1.552519775390625 1.1475000000000002 C 1.575019775390625 1.1475000000000002 1.620019775390625 1.1415000000000002 1.641019775390625 1.1415000000000002 C 1.677019775390625 1.0365000000000002 1.731019775390625 0.9090000000000003 1.762519775390625 0.8250000000000002 C 1.792519775390625 0.8205000000000002 1.926019775390625 0.8190000000000002 1.9710197753906251 0.8190000000000002 C 1.9830197753906251 0.9465000000000001 1.998019775390625 1.0665000000000002 2.016019775390625 1.1895000000000002 C 2.0205197753906248 1.2045000000000001 2.019019775390625 1.2135000000000002 2.023519775390625 1.2225000000000001 C 2.0325197753906252 1.2195000000000003 2.028019775390625 1.2090000000000003 2.0325197753906252 1.2045000000000001 C 2.0325197753906252 1.2015000000000002 2.037019775390625 1.2015000000000002 2.037019775390625 1.2015000000000002 L 2.037019775390625 1.1895000000000002 C 2.037019775390625 1.1865 2.038519775390625 1.1835000000000002 2.038519775390625 1.1775000000000002 C 2.040019775390625 1.1835000000000002 2.040019775390625 1.1865 2.040019775390625 1.1895000000000002 C 2.041519775390625 1.1880000000000002 2.041519775390625 1.1850000000000003 2.041519775390625 1.1820000000000002 C 2.041519775390625 1.1790000000000003 2.041519775390625 1.1760000000000002 2.044519775390625 1.1760000000000002 L 2.049019775390625 1.1760000000000002 C 2.050519775390625 1.1760000000000002 2.052019775390625 1.1820000000000002 2.052019775390625 1.1835000000000002 L 2.052019775390625 1.1895000000000002 C 2.052019775390625 1.1955000000000002 2.052019775390625 1.1985000000000001 2.053519775390625 1.1985000000000001 C 2.0565197753906252 1.1985000000000001 2.058019775390625 1.1895000000000002 2.058019775390625 1.1820000000000002 C 2.061019775390625 1.1805 2.064019775390625 1.1940000000000002 2.064019775390625 1.1925000000000001 C 2.068519775390625 1.1925000000000001 2.068519775390625 1.1895000000000002 2.071519775390625 1.1895000000000002 C 2.073019775390625 1.1895000000000002 2.082019775390625 1.1985000000000001 2.085019775390625 1.2045000000000001 C 2.086519775390625 1.2045000000000001 2.086519775390625 1.1940000000000002 2.086519775390625 1.1940000000000002 C 2.089519775390625 1.1940000000000002 2.089519775390625 1.1970000000000003 2.089519775390625 1.1970000000000003 C 2.097019775390625 1.1970000000000003 2.098519775390625 1.1835000000000002 2.098519775390625 1.1790000000000003 L 2.098519775390625 1.1625 C 2.101519775390625 1.1700000000000002 2.098519775390625 1.1775000000000002 2.104519775390625 1.1895000000000002 C 2.107519775390625 1.2000000000000002 2.107519775390625 1.2105000000000001 2.112019775390625 1.2195000000000003 C 2.112019775390625 1.2120000000000002 2.112019775390625 1.1970000000000003 2.115019775390625 1.1940000000000002 C 2.115019775390625 1.1925000000000001 2.112019775390625 1.1925000000000001 2.112019775390625 1.1895000000000002 C 2.112019775390625 1.1865 2.116519775390625 1.1595000000000002 2.118019775390625 1.1565 C 2.119519775390625 1.1655000000000002 2.119519775390625 1.1835000000000002 2.128519775390625 1.1865 L 2.128519775390625 1.1715000000000002 L 2.133019775390625 1.1625 C 2.134519775390625 1.1640000000000001 2.134519775390625 1.1655000000000002 2.134519775390625 1.1670000000000003 C 2.134519775390625 1.1685 2.134519775390625 1.1715000000000002 2.136019775390625 1.1730000000000003 C 2.1375197753906248 1.1745 2.143519775390625 1.1850000000000003 2.143519775390625 1.1865 C 2.143519775390625 1.1670000000000003 2.1510197753906253 1.1280000000000001 2.1510197753906253 1.0950000000000002 C 2.1510197753906253 1.0875000000000001 2.1510197753906253 1.0815000000000001 2.149519775390625 1.0755000000000001 C 2.142019775390625 0.9945000000000002 2.133019775390625 0.9030000000000002 2.1270197753906253 0.8220000000000002 C 2.1375197753906248 0.8190000000000002 2.145019775390625 0.8190000000000002 2.155519775390625 0.8160000000000002 C 2.157019775390625 0.8145000000000002 2.145019775390625 0.8070000000000002 2.145019775390625 0.8055000000000001 L 2.152519775390625 0.8055000000000001 C 2.155519775390625 0.8040000000000002 2.161519775390625 0.8025000000000002 2.166019775390625 0.8025000000000002 C 2.166019775390625 0.8025000000000002 2.176519775390625 0.7950000000000002 2.176519775390625 0.7905000000000002 C 2.176519775390625 0.7845000000000002 2.176519775390625 0.7830000000000001 2.181019775390625 0.7830000000000001 C 2.181019775390625 0.7785000000000002 2.185519775390625 0.7755000000000002 2.188519775390625 0.7755000000000002 C 2.191519775390625 0.7740000000000002 2.193019775390625 0.7725000000000002 2.193019775390625 0.7710000000000001 C 2.193019775390625 0.7695000000000002 2.191519775390625 0.7665000000000002 2.191519775390625 0.7650000000000001 C 2.191519775390625 0.7635000000000002 2.193019775390625 0.7620000000000002 2.196019775390625 0.7620000000000002 C 2.194519775390625 0.7605000000000002 2.191519775390625 0.7560000000000002 2.191519775390625 0.7530000000000001 M 1.801519775390625 0.7110000000000002 C 1.860019775390625 0.5580000000000002 1.893019775390625 0.49050000000000016 1.930519775390625 0.37350000000000017 C 1.932019775390625 0.4740000000000002 1.950019775390625 0.5865000000000001 1.962019775390625 0.7110000000000002 C 1.918519775390625 0.7110000000000002 1.890019775390625 0.7095000000000002 1.857019775390625 0.7095000000000002 C 1.840519775390625 0.7095000000000002 1.822519775390625 0.7095000000000002 1.801519775390625 0.7110000000000002 M 3.049560791015625 0.18600000000000017 C 3.033060791015625 0.18600000000000017 2.998560791015625 0.12900000000000023 2.986560791015625 0.12150000000000016 C 2.986560791015625 0.12150000000000016 2.9850607910156253 0.1260000000000001 2.983560791015625 0.1260000000000001 C 2.983560791015625 0.1260000000000001 2.982060791015625 0.12450000000000028 2.982060791015625 0.12150000000000016 L 2.977560791015625 0.12150000000000016 C 2.970060791015625 0.12150000000000016 2.962560791015625 0.12300000000000022 2.962560791015625 0.14850000000000008 C 2.887560791015625 0.3510000000000002 2.856060791015625 0.5910000000000002 2.802060791015625 0.8910000000000002 C 2.800560791015625 0.8985000000000002 2.799060791015625 0.9030000000000002 2.793060791015625 0.9135000000000002 C 2.787060791015625 0.9060000000000001 2.7840607910156248 0.8925000000000002 2.781060791015625 0.8805000000000002 C 2.758560791015625 0.7710000000000001 2.746560791015625 0.43500000000000016 2.704560791015625 0.3660000000000002 C 2.704560791015625 0.3660000000000002 2.697060791015625 0.3570000000000002 2.697060791015625 0.3510000000000002 L 2.691060791015625 0.3420000000000002 C 2.649060791015625 0.2685000000000002 2.583060791015625 0.15900000000000014 2.500560791015625 0.15900000000000014 C 2.472060791015625 0.15900000000000014 2.442060791015625 0.1725000000000002 2.410560791015625 0.20250000000000012 C 2.281560791015625 0.35250000000000015 2.223060791015625 0.6045000000000001 2.223060791015625 0.8430000000000002 C 2.223060791015625 0.8910000000000002 2.226060791015625 0.9390000000000002 2.230560791015625 0.9855000000000002 C 2.236560791015625 0.9930000000000002 2.236560791015625 1.0050000000000001 2.241060791015625 1.0140000000000002 L 2.247060791015625 1.0140000000000002 C 2.257560791015625 1.0200000000000002 2.263560791015625 1.0260000000000002 2.268060791015625 1.0260000000000002 C 2.269560791015625 1.0260000000000002 2.278560791015625 1.0335 2.284560791015625 1.0335 L 2.292060791015625 1.0440000000000003 L 2.296560791015625 1.0425000000000002 C 2.302560791015625 1.0485000000000002 2.310060791015625 1.0620000000000003 2.316060791015625 1.0710000000000002 C 2.320560791015625 1.0755000000000001 2.320560791015625 1.0905000000000002 2.328060791015625 1.0995000000000001 C 2.332560791015625 1.104 2.338560791015625 1.122 2.349060791015625 1.122 C 2.364060791015625 1.1115000000000002 2.368560791015625 1.0755000000000001 2.3745607910156252 1.0500000000000003 C 2.400060791015625 0.8055000000000001 2.430060791015625 0.5010000000000002 2.544060791015625 0.2895000000000002 C 2.559060791015625 0.30900000000000016 2.557560791015625 0.3600000000000002 2.563560791015625 0.3915000000000002 C 2.580060791015625 0.5505000000000002 2.605560791015625 0.9990000000000002 2.692560791015625 1.1295000000000002 C 2.715060791015625 1.1490000000000002 2.748060791015625 1.1595000000000002 2.779560791015625 1.1595000000000002 C 2.832060791015625 1.1595000000000002 2.884560791015625 1.1310000000000002 2.9010607910156248 1.0620000000000003 C 2.970060791015625 0.7560000000000002 2.998560791015625 0.48750000000000016 3.046560791015625 0.2685000000000002 C 3.0555607910156253 0.2685000000000002 3.060060791015625 0.19500000000000017 3.060060791015625 0.18000000000000016 L 3.0555607910156253 0.18150000000000022 C 3.054060791015625 0.18450000000000022 3.052560791015625 0.18600000000000017 3.049560791015625 0.18600000000000017 M 2.449560791015625 0.4035000000000002 C 2.4450607910156252 0.4065000000000002 2.443560791015625 0.4095000000000002 2.443560791015625 0.41400000000000015 C 2.446560791015625 0.4125000000000002 2.446560791015625 0.41400000000000015 2.449560791015625 0.40800000000000014 C 2.449560791015625 0.42900000000000016 2.431560791015625 0.4650000000000002 2.424060791015625 0.4890000000000002 C 2.421060791015625 0.48750000000000016 2.421060791015625 0.48450000000000015 2.421060791015625 0.4830000000000002 C 2.421060791015625 0.4770000000000002 2.430060791015625 0.4710000000000002 2.430060791015625 0.46650000000000014 C 2.430060791015625 0.4650000000000002 2.428560791015625 0.46350000000000013 2.427060791015625 0.46350000000000013 C 2.427060791015625 0.4470000000000002 2.433060791015625 0.42600000000000016 2.439060791015625 0.42600000000000016 C 2.439060791015625 0.4305000000000002 2.434560791015625 0.43800000000000017 2.434560791015625 0.4425000000000002 C 2.439060791015625 0.4425000000000002 2.434560791015625 0.4335000000000002 2.440560791015625 0.4305000000000002 C 2.440560791015625 0.4035000000000002 2.454060791015625 0.38400000000000023 2.460060791015625 0.3630000000000002 C 2.458560791015625 0.36150000000000015 2.458560791015625 0.3600000000000002 2.458560791015625 0.35850000000000015 C 2.458560791015625 0.35250000000000015 2.464560791015625 0.3450000000000002 2.4690607910156253 0.3450000000000002 C 2.467560791015625 0.3450000000000002 2.466060791015625 0.34350000000000014 2.466060791015625 0.3420000000000002 C 2.466060791015625 0.34050000000000014 2.466060791015625 0.33750000000000013 2.467560791015625 0.3360000000000002 C 2.466060791015625 0.3360000000000002 2.466060791015625 0.33750000000000013 2.466060791015625 0.3360000000000002 C 2.466060791015625 0.3330000000000002 2.464560791015625 0.33150000000000013 2.464560791015625 0.3300000000000002 C 2.467560791015625 0.3300000000000002 2.467560791015625 0.33150000000000013 2.4690607910156253 0.33150000000000013 C 2.4690607910156253 0.3300000000000002 2.470560791015625 0.3285000000000001 2.472060791015625 0.3270000000000002 L 2.472060791015625 0.3210000000000002 C 2.475060791015625 0.3135000000000002 2.4795607910156248 0.3075000000000002 2.482560791015625 0.29700000000000015 C 2.482560791015625 0.30000000000000016 2.482560791015625 0.30300000000000016 2.481060791015625 0.3045000000000002 C 2.484060791015625 0.29700000000000015 2.491560791015625 0.2895000000000002 2.491560791015625 0.2895000000000002 C 2.491560791015625 0.28800000000000014 2.5155607910156252 0.24300000000000022 2.524560791015625 0.24150000000000016 C 2.524560791015625 0.24600000000000022 2.520060791015625 0.24600000000000022 2.520060791015625 0.2520000000000002 C 2.520060791015625 0.2520000000000002 2.518560791015625 0.2670000000000001 2.514060791015625 0.2715000000000002 C 2.514060791015625 0.27000000000000013 2.5155607910156252 0.27000000000000013 2.5155607910156252 0.2670000000000001 C 2.5155607910156252 0.2670000000000001 2.514060791015625 0.27000000000000013 2.509560791015625 0.2715000000000002 C 2.509560791015625 0.27300000000000013 2.511060791015625 0.27600000000000013 2.511060791015625 0.2775000000000002 C 2.511060791015625 0.27900000000000014 2.509560791015625 0.2805000000000002 2.508060791015625 0.2805000000000002 L 2.509560791015625 0.2745000000000002 C 2.506560791015625 0.2775000000000002 2.502060791015625 0.2925000000000002 2.497560791015625 0.2955000000000002 C 2.499060791015625 0.29700000000000015 2.499060791015625 0.2985000000000002 2.499060791015625 0.30000000000000016 C 2.499060791015625 0.3015000000000002 2.488560791015625 0.3105000000000002 2.488560791015625 0.3165000000000002 C 2.488560791015625 0.31800000000000017 2.490060791015625 0.31950000000000023 2.490060791015625 0.3210000000000002 C 2.487060791015625 0.3210000000000002 2.482560791015625 0.33150000000000013 2.481060791015625 0.3360000000000002 C 2.4795607910156248 0.34350000000000014 2.473560791015625 0.3540000000000002 2.4690607910156253 0.3630000000000002 C 2.4690607910156253 0.36450000000000016 2.467560791015625 0.3660000000000002 2.467560791015625 0.36750000000000016 C 2.467560791015625 0.37050000000000016 2.472060791015625 0.36450000000000016 2.476560791015625 0.3540000000000002 L 2.476560791015625 0.3570000000000002 C 2.4690607910156253 0.3750000000000002 2.460060791015625 0.3885000000000002 2.452560791015625 0.40800000000000014 C 2.452560791015625 0.4065000000000002 2.452560791015625 0.4035000000000002 2.449560791015625 0.4035000000000002 M 2.505060791015625 0.34650000000000014 C 2.503560791015625 0.34950000000000014 2.499060791015625 0.36150000000000015 2.499060791015625 0.3630000000000002 C 2.499060791015625 0.3570000000000002 2.502060791015625 0.34350000000000014 2.506560791015625 0.33750000000000013 C 2.506560791015625 0.33450000000000013 2.511060791015625 0.3285000000000001 2.511060791015625 0.3240000000000002 C 2.494560791015625 0.35250000000000015 2.490060791015625 0.37050000000000016 2.490060791015625 0.3720000000000002 C 2.491560791015625 0.37050000000000016 2.493060791015625 0.37050000000000016 2.494560791015625 0.37050000000000016 C 2.4795607910156248 0.4125000000000002 2.470560791015625 0.44100000000000017 2.457060791015625 0.47250000000000014 C 2.457060791015625 0.4590000000000002 2.466060791015625 0.4515000000000001 2.466060791015625 0.4395000000000002 C 2.466060791015625 0.4395000000000002 2.461560791015625 0.4395000000000002 2.461560791015625 0.4425000000000002 C 2.461560791015625 0.4440000000000002 2.460060791015625 0.4710000000000002 2.449560791015625 0.4710000000000002 C 2.451060791015625 0.45750000000000013 2.452560791015625 0.4245000000000002 2.460060791015625 0.41700000000000015 C 2.460060791015625 0.42000000000000015 2.461560791015625 0.42000000000000015 2.461560791015625 0.42000000000000015 C 2.460060791015625 0.4185000000000002 2.460060791015625 0.4155000000000002 2.460060791015625 0.41400000000000015 C 2.464560791015625 0.40800000000000014 2.464560791015625 0.4065000000000002 2.464560791015625 0.4005000000000002 C 2.470560791015625 0.4005000000000002 2.472060791015625 0.3975000000000002 2.472060791015625 0.3915000000000002 C 2.472060791015625 0.3945000000000002 2.473560791015625 0.3945000000000002 2.475060791015625 0.3945000000000002 C 2.476560791015625 0.3945000000000002 2.4795607910156248 0.3930000000000001 2.4795607910156248 0.3930000000000001 C 2.484060791015625 0.3975000000000002 2.488560791015625 0.34650000000000014 2.497560791015625 0.34650000000000014 C 2.497560791015625 0.3450000000000002 2.496060791015625 0.34350000000000014 2.496060791015625 0.3420000000000002 C 2.497560791015625 0.34050000000000014 2.493060791015625 0.34050000000000014 2.491560791015625 0.34050000000000014 C 2.490060791015625 0.34050000000000014 2.497560791015625 0.33450000000000013 2.499060791015625 0.3300000000000002 C 2.499060791015625 0.3330000000000002 2.497560791015625 0.3360000000000002 2.497560791015625 0.3390000000000002 C 2.508060791015625 0.3210000000000002 2.5155607910156252 0.2955000000000002 2.527560791015625 0.2775000000000002 C 2.532060791015625 0.2805000000000002 2.532060791015625 0.2835000000000002 2.532060791015625 0.28800000000000014 C 2.524560791015625 0.29400000000000015 2.506560791015625 0.33750000000000013 2.505060791015625 0.34650000000000014 M 2.488560791015625 0.2715000000000002 C 2.488560791015625 0.27300000000000013 2.490060791015625 0.27000000000000013 2.490060791015625 0.2685000000000002 C 2.490060791015625 0.27000000000000013 2.491560791015625 0.27300000000000013 2.491560791015625 0.27300000000000013 C 2.491560791015625 0.27600000000000013 2.490060791015625 0.27900000000000014 2.490060791015625 0.28200000000000014 C 2.493060791015625 0.27600000000000013 2.496060791015625 0.27000000000000013 2.497560791015625 0.2610000000000001 C 2.503560791015625 0.2610000000000001 2.511060791015625 0.24300000000000022 2.521560791015625 0.23250000000000015 C 2.509560791015625 0.25050000000000017 2.494560791015625 0.27300000000000013 2.485560791015625 0.2955000000000002 C 2.485560791015625 0.2925000000000002 2.487060791015625 0.2895000000000002 2.487060791015625 0.28800000000000014 C 2.484060791015625 0.2955000000000002 2.476560791015625 0.30300000000000016 2.473560791015625 0.30600000000000016 C 2.473560791015625 0.30900000000000016 2.470560791015625 0.3135000000000002 2.470560791015625 0.31200000000000017 C 2.470560791015625 0.30900000000000016 2.472060791015625 0.3075000000000002 2.472060791015625 0.30600000000000016 C 2.472060791015625 0.3075000000000002 2.4795607910156248 0.28500000000000014 2.488560791015625 0.2715000000000002 M 2.499060791015625 0.2955000000000002 L 2.508060791015625 0.2835000000000002 C 2.508060791015625 0.2865000000000002 2.502060791015625 0.2925000000000002 2.502060791015625 0.2955000000000002 C 2.506560791015625 0.2955000000000002 2.506560791015625 0.2925000000000002 2.508060791015625 0.2925000000000002 C 2.508060791015625 0.3105000000000002 2.497560791015625 0.3210000000000002 2.488560791015625 0.33150000000000013 C 2.493060791015625 0.3210000000000002 2.499060791015625 0.30900000000000016 2.502060791015625 0.30000000000000016 C 2.502060791015625 0.2955000000000002 2.499060791015625 0.2955000000000002 2.499060791015625 0.2955000000000002 M 2.452560791015625 0.34650000000000014 C 2.454060791015625 0.3480000000000002 2.454060791015625 0.34950000000000014 2.454060791015625 0.3510000000000002 C 2.454060791015625 0.3600000000000002 2.443560791015625 0.3825000000000002 2.439060791015625 0.3885000000000002 C 2.439060791015625 0.38400000000000023 2.440560791015625 0.3780000000000002 2.440560791015625 0.3720000000000002 C 2.442060791015625 0.3720000000000002 2.449560791015625 0.3540000000000002 2.452560791015625 0.34650000000000014 M 2.7510607910156253 0.7770000000000001 C 2.7495607910156252 0.7680000000000002 2.748060791015625 0.7650000000000001 2.748060791015625 0.7650000000000001 C 2.748060791015625 0.7635000000000002 2.746560791015625 0.7485000000000002 2.746560791015625 0.7485000000000002 C 2.746560791015625 0.7470000000000001 2.742060791015625 0.7290000000000002 2.742060791015625 0.7200000000000002 C 2.743560791015625 0.7215000000000003 2.743560791015625 0.7230000000000002 2.743560791015625 0.7245000000000001 L 2.743560791015625 0.7185000000000001 C 2.743560791015625 0.7140000000000002 2.743560791015625 0.7110000000000002 2.742060791015625 0.7080000000000002 C 2.743560791015625 0.7080000000000002 2.743560791015625 0.7065000000000001 2.743560791015625 0.7005000000000001 L 2.752560791015625 0.7815000000000002 C 2.752560791015625 0.7830000000000001 2.7510607910156253 0.7785000000000002 2.7510607910156253 0.7770000000000001 M 2.736060791015625 0.6450000000000001 C 2.7375607910156248 0.6540000000000001 2.740560791015625 0.6690000000000003 2.740560791015625 0.6810000000000002 L 2.740560791015625 0.7005000000000001 C 2.739060791015625 0.7005000000000001 2.739060791015625 0.6990000000000002 2.739060791015625 0.6960000000000002 C 2.7375607910156248 0.6930000000000002 2.7375607910156248 0.6915000000000002 2.7375607910156248 0.6900000000000002 L 2.7375607910156248 0.6645000000000002 C 2.7375607910156248 0.6570000000000003 2.736060791015625 0.6495000000000002 2.736060791015625 0.6450000000000001 M 2.472060791015625 0.34650000000000014 C 2.466060791015625 0.36150000000000015 2.457060791015625 0.37050000000000016 2.457060791015625 0.3780000000000002 C 2.457060791015625 0.3750000000000002 2.460060791015625 0.3720000000000002 2.464560791015625 0.3720000000000002 C 2.464560791015625 0.37650000000000017 2.472060791015625 0.35250000000000015 2.472060791015625 0.34650000000000014 M 2.470560791015625 0.37950000000000017 C 2.470560791015625 0.3720000000000002 2.475060791015625 0.36450000000000016 2.4795607910156248 0.3600000000000002 C 2.476560791015625 0.36450000000000016 2.476560791015625 0.36750000000000016 2.475060791015625 0.37050000000000016 C 2.476560791015625 0.37350000000000017 2.481060791015625 0.37050000000000016 2.481060791015625 0.3750000000000002 C 2.4795607910156248 0.3750000000000002 2.472060791015625 0.3825000000000002 2.472060791015625 0.38400000000000023 C 2.472060791015625 0.3825000000000002 2.470560791015625 0.3810000000000002 2.470560791015625 0.37950000000000017 M 2.467560791015625 0.31500000000000017 C 2.467560791015625 0.3270000000000002 2.458560791015625 0.3360000000000002 2.455560791015625 0.3450000000000002 L 2.457060791015625 0.3390000000000002 C 2.461560791015625 0.33150000000000013 2.463060791015625 0.3225000000000001 2.467560791015625 0.31500000000000017 M 2.482560791015625 0.3285000000000001 C 2.4795607910156248 0.33150000000000013 2.476560791015625 0.33450000000000013 2.476560791015625 0.33750000000000013 C 2.481060791015625 0.33750000000000013 2.482560791015625 0.33150000000000013 2.482560791015625 0.3285000000000001 M 2.481060791015625 0.31800000000000017 C 2.481060791015625 0.3165000000000002 2.4795607910156248 0.31500000000000017 2.4795607910156248 0.3135000000000002 L 2.4795607910156248 0.3105000000000002 L 2.472060791015625 0.3270000000000002 C 2.475060791015625 0.3210000000000002 2.4795607910156248 0.3165000000000002 2.481060791015625 0.31800000000000017 M 2.4690607910156253 0.33150000000000013 C 2.467560791015625 0.3330000000000002 2.467560791015625 0.33450000000000013 2.467560791015625 0.3360000000000002 C 2.467560791015625 0.33450000000000013 2.467560791015625 0.33450000000000013 2.4690607910156253 0.3330000000000002 M 2.481060791015625 0.33450000000000013 C 2.481060791015625 0.33450000000000013 2.481060791015625 0.3360000000000002 2.481060791015625 0.3360000000000002 M 3.6405556640625 0.5790000000000002 C 3.5280556640625003 0.5790000000000002 3.4125556640625 0.6045000000000001 3.3795556640625 0.6045000000000001 C 3.3660556640625 0.6015000000000001 3.3510556640624998 0.6000000000000002 3.3360556640625 0.6000000000000002 C 3.3225556640625 0.6000000000000002 3.3090556640625 0.6015000000000001 3.2955556640625 0.6090000000000002 C 3.3150556640625 0.5295000000000002 3.3690556640625 0.42600000000000016 3.4260556640625 0.3690000000000002 C 3.4695556640625 0.3300000000000002 3.5100556640625 0.30000000000000016 3.5625556640625 0.27900000000000014 C 3.5685556640625 0.28200000000000014 3.5760556640625 0.2835000000000002 3.5835556640625 0.2835000000000002 C 3.6015556640625 0.2835000000000002 3.6255556640625 0.2775000000000002 3.6255556640625 0.2565000000000002 C 3.6255556640625 0.21150000000000013 3.5175556640625 0.14250000000000007 3.4725556640625 0.14250000000000007 C 3.4665556640625 0.14250000000000007 3.4620556640625 0.14250000000000007 3.4590556640625 0.14550000000000018 C 3.4485556640625 0.14100000000000024 3.4305556640625 0.13650000000000007 3.4155556640625 0.13650000000000007 C 3.4080556640625 0.13650000000000007 3.4020556640625 0.13800000000000012 3.3960556640625 0.13950000000000018 C 3.2055556640625 0.20700000000000018 3.1050556640625 0.3915000000000002 3.0555556640625 0.5730000000000002 C 3.0315556640625 0.6645000000000002 3.0135556640625 0.7590000000000001 3.0135556640625 0.8505000000000003 C 3.0135556640625 0.8895000000000002 3.0165556640625 0.9270000000000002 3.0240556640625 0.9645000000000001 C 3.0240556640625 0.9690000000000002 3.0255556640625 0.9780000000000002 3.0270556640625 0.9855000000000002 C 3.0405556640625 1.0845000000000002 3.1440556640625 1.1550000000000002 3.2400556640625 1.1550000000000002 C 3.2685556640625 1.1550000000000002 3.2970556640625 1.1490000000000002 3.3225556640625 1.1355000000000002 C 3.3690556640625 1.0905000000000002 3.4410556640625 1.0830000000000002 3.4680556640624998 1.0215 C 3.5280556640625003 0.9330000000000002 3.5280556640625003 0.8295000000000001 3.5610556640624997 0.7320000000000002 L 3.5610556640624997 0.7140000000000002 C 3.5535556640625 0.7395000000000002 3.5265556640625 0.8145000000000002 3.5190556640625 0.8535000000000001 C 3.5265556640625 0.7965000000000002 3.5460556640625 0.7545000000000002 3.5595556640625 0.7035000000000002 C 3.5850556640624998 0.6885000000000001 3.6015556640625 0.6915000000000002 3.6330556640625 0.6870000000000002 C 3.6555556640624998 0.6855000000000002 3.6870556640625 0.6855000000000002 3.7065556640625 0.6765000000000001 C 3.7230556640625 0.6765000000000001 3.7425556640625 0.6750000000000002 3.7545556640625 0.6675000000000002 C 3.7545556640625 0.6660000000000001 3.7650556640625 0.6615000000000002 3.7650556640625 0.6600000000000001 L 3.7590556640625 0.6600000000000001 C 3.7590556640625 0.6585000000000002 3.7650556640625 0.6570000000000003 3.7635556640625 0.6555000000000002 C 3.7470556640625 0.6585000000000002 3.7470556640625 0.6600000000000001 3.7440556640625 0.6600000000000001 C 3.7425556640625 0.6600000000000001 3.7530556640625 0.6540000000000001 3.7530556640625 0.6495000000000002 C 3.7500556640625 0.6495000000000002 3.7410556640625 0.6510000000000001 3.7320556640625 0.6510000000000001 C 3.7275556640625 0.6480000000000001 3.7230556640625 0.6465000000000002 3.7185556640625 0.6465000000000002 C 3.7155556640625003 0.6465000000000002 3.7110556640625 0.6465000000000002 3.7080556640625 0.6450000000000001 C 3.7140556640625 0.6405000000000002 3.7230556640625 0.6375000000000002 3.7230556640625 0.6315000000000002 C 3.7230556640625 0.6300000000000002 3.7335556640625 0.6285000000000002 3.7380556640625002 0.6285000000000002 C 3.7395556640625003 0.6285000000000002 3.7440556640625 0.6300000000000002 3.7425556640625 0.6285000000000002 C 3.7380556640625002 0.6270000000000002 3.7365556640625 0.6255000000000002 3.7365556640625 0.6240000000000002 C 3.7365556640625 0.6225000000000002 3.7425556640625 0.6225000000000002 3.7485556640625 0.6225000000000002 L 3.7620556640625002 0.6225000000000002 C 3.7605556640625 0.6285000000000002 3.7500556640625 0.6225000000000002 3.7500556640625 0.6300000000000002 C 3.7560556640625 0.6300000000000002 3.7575556640625 0.6300000000000002 3.7575556640625 0.6315000000000002 C 3.7575556640625 0.6345000000000002 3.7530556640625 0.6375000000000002 3.7530556640625 0.6390000000000002 C 3.7530556640625 0.6405000000000002 3.7650556640625 0.6345000000000002 3.7710556640625 0.6345000000000002 C 3.7710556640625 0.6375000000000002 3.7680556640625 0.6405000000000002 3.7680556640625 0.6420000000000001 C 3.7800556640625 0.6360000000000002 3.7770556640625 0.6225000000000002 3.7815556640625 0.6135000000000002 C 3.7860556640625003 0.6135000000000002 3.7845556640625 0.6120000000000002 3.7860556640625003 0.6120000000000002 C 3.7830556640625 0.6060000000000002 3.7860556640625003 0.6000000000000002 3.7770556640625 0.5970000000000002 C 3.7365556640625 0.5835000000000001 3.6885556640625 0.5790000000000002 3.6405556640625 0.5790000000000002 M 3.2760556640625 1.0215 C 3.2520556640625 0.9810000000000002 3.2490556640625 0.9150000000000001 3.2490556640625 0.8685000000000002 C 3.2490556640625 0.7920000000000003 3.2610556640625 0.7155000000000002 3.2850556640625 0.6465000000000002 C 3.2865556640625 0.6510000000000001 3.2925556640625 0.6630000000000003 3.2985556640625 0.6645000000000002 C 3.2970556640625 0.6660000000000001 3.3090556640625 0.6675000000000002 3.3090556640625 0.6705000000000002 C 3.3105556640625 0.6705000000000002 3.3045556640625 0.6735000000000002 3.3045556640625 0.6765000000000001 C 3.3090556640625 0.6780000000000002 3.3225556640625 0.6825000000000001 3.3225556640625 0.6855000000000002 C 3.3225556640625 0.6900000000000002 3.3270556640625 0.6900000000000002 3.3285556640625 0.6900000000000002 C 3.3285556640625 0.6930000000000002 3.3270556640625 0.6930000000000002 3.3270556640625 0.6945000000000001 C 3.3270556640625 0.6960000000000002 3.3315556640625 0.6990000000000002 3.3330556640625 0.7020000000000002 C 3.3375556640625 0.7035000000000002 3.3405556640625 0.7050000000000002 3.3450556640625 0.7050000000000002 C 3.3465556640625 0.7080000000000002 3.3450556640625 0.7140000000000002 3.3525556640625 0.7140000000000002 C 3.3570556640625 0.7170000000000002 3.3585556640625 0.7185000000000001 3.3615556640625 0.7185000000000001 C 3.3660556640625 0.7185000000000001 3.3720556640625 0.7155000000000002 3.3750556640625 0.7155000000000002 C 3.3765556640625 0.7200000000000002 3.3795556640625 0.7230000000000002 3.3795556640625 0.7260000000000002 C 3.3765556640625 0.7260000000000002 3.3885556640625 0.7380000000000002 3.3930556640625 0.7380000000000002 C 3.3780556640625 0.8070000000000002 3.3270556640625 0.9810000000000002 3.2760556640625 1.0215 M 3.7530556640625 0.6120000000000002 C 3.7560556640625 0.6135000000000002 3.7605556640625 0.6150000000000002 3.7605556640625 0.6165000000000002 C 3.7590556640625 0.6165000000000002 3.7545556640625 0.6195000000000002 3.7515556640625 0.6195000000000002 C 3.7515556640625 0.6195000000000002 3.7530556640625 0.6165000000000002 3.7530556640625 0.6120000000000002 M 3.7650556640625 0.6270000000000002 C 3.7635556640625 0.6270000000000002 3.7620556640625002 0.6255000000000002 3.7620556640625002 0.6225000000000002 L 3.7680556640625 0.6225000000000002 C 3.7680556640625 0.6255000000000002 3.7665556640625 0.6270000000000002 3.7650556640625 0.6270000000000002 M 4.27502197265625 1.1010000000000002 C 4.27352197265625 1.098 4.27352197265625 1.0965000000000003 4.26902197265625 1.092 C 4.26752197265625 1.0905000000000002 4.27202197265625 1.0905000000000002 4.27502197265625 1.0905000000000002 C 4.27652197265625 1.0905000000000002 4.27802197265625 1.092 4.27952197265625 1.092 C 4.24502197265625 0.9990000000000002 4.19852197265625 0.9090000000000003 4.14902197265625 0.8235000000000001 C 4.08752197265625 0.7200000000000002 4.03952197265625 0.6030000000000002 3.98402197265625 0.5085000000000002 C 4.08002197265625 0.4800000000000002 4.17302197265625 0.4005000000000002 4.17302197265625 0.3135000000000002 C 4.17302197265625 0.19500000000000017 4.04552197265625 0.14550000000000018 3.97352197265625 0.13800000000000012 C 3.94052197265625 0.12150000000000016 3.94502197265625 0.10950000000000015 3.92402197265625 0.1050000000000002 C 3.92102197265625 0.1050000000000002 3.91802197265625 0.1050000000000002 3.91652197265625 0.1080000000000001 C 3.90602197265625 0.10650000000000026 3.89702197265625 0.1050000000000002 3.88802197265625 0.1050000000000002 C 3.88052197265625 0.10650000000000026 3.87452197265625 0.10650000000000026 3.86702197265625 0.10650000000000026 C 3.84452197265625 0.10650000000000026 3.82052197265625 0.10350000000000015 3.79802197265625 0.10350000000000015 C 3.77402197265625 0.10350000000000015 3.75002197265625 0.10650000000000026 3.73052197265625 0.12300000000000022 C 3.72302197265625 0.14250000000000007 3.68252197265625 0.12750000000000017 3.67352197265625 0.1545000000000002 C 3.67352197265625 0.1575000000000002 3.66902197265625 0.1575000000000002 3.66902197265625 0.1605000000000002 C 3.67202197265625 0.16200000000000014 3.67502197265625 0.16200000000000014 3.67652197265625 0.16200000000000014 C 3.68102197265625 0.16200000000000014 3.68552197265625 0.1605000000000002 3.68852197265625 0.1605000000000002 C 3.68702197265625 0.1635000000000002 3.68402197265625 0.1635000000000002 3.68402197265625 0.1635000000000002 C 3.68702197265625 0.16800000000000015 3.68852197265625 0.16800000000000015 3.69302197265625 0.16800000000000015 C 3.67652197265625 0.5085000000000002 3.61052197265625 0.7995000000000002 3.60302197265625 1.122 C 3.60302197265625 1.1535000000000002 3.60302197265625 1.1895000000000002 3.63452197265625 1.1895000000000002 C 3.63452197265625 1.1895000000000002 3.63452197265625 1.1640000000000001 3.64652197265625 1.1640000000000001 C 3.65102197265625 1.1640000000000001 3.66152197265625 1.1520000000000001 3.66752197265625 1.1520000000000001 C 3.66752197265625 1.1535000000000002 3.66602197265625 1.1565 3.66602197265625 1.1580000000000001 C 3.66752197265625 1.1580000000000001 3.68102197265625 1.1535000000000002 3.68852197265625 1.1505000000000003 C 3.68852197265625 1.1505000000000003 3.69002197265625 1.1520000000000001 3.69302197265625 1.1520000000000001 C 3.69902197265625 1.1520000000000001 3.71102197265625 1.1505000000000003 3.71552197265625 1.1460000000000001 C 3.71852197265625 1.1460000000000001 3.72152197265625 1.1445000000000003 3.72302197265625 1.1445000000000003 C 3.72452197265625 1.1475000000000002 3.72752197265625 1.1445000000000003 3.72752197265625 1.1490000000000002 C 3.72752197265625 1.1550000000000002 3.72902197265625 1.1565 3.72902197265625 1.1565 C 3.73202197265625 1.1565 3.73202197265625 1.1550000000000002 3.73202197265625 1.1520000000000001 C 3.73202197265625 1.1445000000000003 3.73352197265625 1.1445000000000003 3.73502197265625 1.1445000000000003 C 3.73802197265625 1.1445000000000003 3.73802197265625 1.1460000000000001 3.73802197265625 1.1475000000000002 C 3.73802197265625 1.1490000000000002 3.74252197265625 1.1445000000000003 3.74552197265625 1.1445000000000003 C 3.74552197265625 1.1490000000000002 3.74402197265625 1.1550000000000002 3.74402197265625 1.1550000000000002 C 3.74702197265625 1.1550000000000002 3.75452197265625 1.1415000000000002 3.75602197265625 1.1415000000000002 C 3.75752197265625 1.1415000000000002 3.75752197265625 1.1460000000000001 3.75752197265625 1.1460000000000001 C 3.75752197265625 1.1460000000000001 3.76052197265625 1.1445000000000003 3.76052197265625 1.1400000000000001 C 3.76202197265625 1.1400000000000001 3.76352197265625 1.1430000000000002 3.76502197265625 1.1445000000000003 C 3.76952197265625 1.1445000000000003 3.76802197265625 1.1520000000000001 3.77252197265625 1.1520000000000001 C 3.77252197265625 1.1490000000000002 3.77252197265625 1.1475000000000002 3.77402197265625 1.1460000000000001 C 3.77402197265625 1.1445000000000003 3.7785219726562502 1.1445000000000003 3.7785219726562502 1.1445000000000003 C 3.7785219726562502 1.1475000000000002 3.78452197265625 1.1460000000000001 3.78452197265625 1.1490000000000002 C 3.78452197265625 1.1490000000000002 3.81152197265625 1.1430000000000002 3.81452197265625 1.1430000000000002 C 3.82352197265625 1.1430000000000002 3.82952197265625 1.1430000000000002 3.82952197265625 1.1520000000000001 C 3.82952197265625 1.1505000000000003 3.83102197265625 1.1460000000000001 3.83252197265625 1.1460000000000001 C 3.83252197265625 1.1460000000000001 3.83252197265625 1.1475000000000002 3.83702197265625 1.1505000000000003 C 3.8490219726562502 1.1505000000000003 3.88802197265625 0.7080000000000002 3.89252197265625 0.6735000000000002 C 3.94052197265625 0.7875000000000002 4.08152197265625 1.0440000000000003 4.1130219726562505 1.098 C 4.12502197265625 1.1175000000000002 4.1355219726562495 1.1280000000000001 4.15652197265625 1.1355000000000002 C 4.1595219726562505 1.1325000000000003 4.16852197265625 1.1340000000000001 4.16852197265625 1.1280000000000001 C 4.16852197265625 1.1280000000000001 4.16852197265625 1.1265000000000003 4.16702197265625 1.1235000000000002 L 4.17902197265625 1.1295000000000002 C 4.17752197265625 1.1280000000000001 4.17452197265625 1.122 4.17452197265625 1.1175000000000002 C 4.17452197265625 1.116 4.18502197265625 1.1295000000000002 4.19252197265625 1.1295000000000002 C 4.19252197265625 1.1280000000000001 4.19552197265625 1.1325000000000003 4.19702197265625 1.1355000000000002 C 4.19702197265625 1.1295000000000002 4.19552197265625 1.1265000000000003 4.19552197265625 1.122 C 4.19552197265625 1.1235000000000002 4.20002197265625 1.1280000000000001 4.20302197265625 1.1280000000000001 C 4.20302197265625 1.122 4.20302197265625 1.1205000000000003 4.20602197265625 1.1205000000000003 C 4.20302197265625 1.116 4.20152197265625 1.1115000000000002 4.20152197265625 1.1115000000000002 C 4.21202197265625 1.1190000000000002 4.21202197265625 1.1235000000000002 4.22402197265625 1.1235000000000002 C 4.22702197265625 1.1235000000000002 4.2285219726562495 1.1235000000000002 4.2285219726562495 1.122 C 4.2285219726562495 1.1205000000000003 4.22552197265625 1.116 4.22552197265625 1.1145000000000003 C 4.22402197265625 1.11 4.22252197265625 1.1055000000000001 4.22252197265625 1.1010000000000002 C 4.2285219726562495 1.104 4.23002197265625 1.1055000000000001 4.23152197265625 1.1055000000000001 C 4.23302197265625 1.1055000000000001 4.23452197265625 1.104 4.23752197265625 1.104 C 4.23452197265625 1.1010000000000002 4.23452197265625 1.0965000000000003 4.23452197265625 1.0935000000000001 C 4.23902197265625 1.0935000000000001 4.24502197265625 1.1010000000000002 4.24802197265625 1.1055000000000001 L 4.24802197265625 1.0935000000000001 C 4.24952197265625 1.0935000000000001 4.26002197265625 1.0965000000000003 4.26152197265625 1.098 C 4.26152197265625 1.0965000000000003 4.26152197265625 1.0950000000000002 4.26452197265625 1.0950000000000002 C 4.27052197265625 1.0965000000000003 4.27202197265625 1.1010000000000002 4.27502197265625 1.1010000000000002 M 3.91502197265625 0.4470000000000002 C 3.91502197265625 0.44100000000000017 3.91652197265625 0.4365000000000002 3.91652197265625 0.4305000000000002 C 3.92402197265625 0.3540000000000002 3.93302197265625 0.2835000000000002 3.94652197265625 0.21150000000000013 C 3.9900219726562502 0.2130000000000002 4.06352197265625 0.2400000000000002 4.06352197265625 0.2955000000000002 C 4.06352197265625 0.36150000000000015 3.99902197265625 0.42000000000000015 3.91502197265625 0.4470000000000002 M 3.66302197265625 0.9165000000000002 C 3.66602197265625 0.9195000000000002 3.66602197265625 0.9210000000000002 3.66602197265625 0.9240000000000002 C 3.66602197265625 0.9285000000000002 3.66452197265625 0.9315000000000002 3.66302197265625 0.9345000000000002 C 3.66752197265625 0.9345000000000002 3.66752197265625 0.9330000000000002 3.67052197265625 0.9330000000000002 L 3.67052197265625 0.9690000000000002 C 3.67202197265625 0.9660000000000002 3.67352197265625 0.9540000000000002 3.67502197265625 0.9540000000000002 C 3.67502197265625 0.9570000000000002 3.67352197265625 0.9630000000000002 3.67352197265625 0.9660000000000002 L 3.67802197265625 0.9690000000000002 C 3.67802197265625 0.9735000000000003 3.67352197265625 0.9780000000000002 3.67352197265625 0.9795000000000001 C 3.67352197265625 0.9780000000000002 3.66752197265625 0.9870000000000002 3.66452197265625 0.9915000000000002 C 3.66002197265625 0.9870000000000002 3.65852197265625 0.9810000000000002 3.65852197265625 0.9750000000000002 C 3.65852197265625 0.9660000000000002 3.66152197265625 0.9555000000000002 3.66152197265625 0.9495000000000002 C 3.66152197265625 0.9465000000000001 3.66002197265625 0.9405000000000002 3.66002197265625 0.9360000000000002 C 3.66002197265625 0.9285000000000002 3.66152197265625 0.9225000000000002 3.66302197265625 0.9165000000000002 M 3.64652197265625 0.9930000000000002 C 3.64952197265625 0.9915000000000002 3.64802197265625 0.9885000000000002 3.65402197265625 0.9885000000000002 L 3.65402197265625 0.9945000000000002 C 3.65402197265625 0.9990000000000002 3.65252197265625 0.9990000000000002 3.65102197265625 0.9990000000000002 C 3.64952197265625 1.0080000000000002 3.64802197265625 1.0155000000000003 3.64502197265625 1.0245000000000002 C 3.64502197265625 1.0215 3.64352197265625 1.0170000000000001 3.64352197265625 1.0125000000000002 C 3.64352197265625 1.0065000000000002 3.64502197265625 0.9990000000000002 3.64652197265625 0.9930000000000002 M 3.66002197265625 1.0500000000000003 C 3.66152197265625 1.0515 3.66152197265625 1.0530000000000002 3.66152197265625 1.0545000000000002 C 3.66152197265625 1.0575 3.66002197265625 1.0590000000000002 3.66002197265625 1.0635000000000001 C 3.65702197265625 1.0620000000000003 3.65552197265625 1.0560000000000003 3.65552197265625 1.0560000000000003 C 3.65552197265625 1.0500000000000003 3.65852197265625 1.0320000000000003 3.66152197265625 1.0305000000000002 C 3.66152197265625 1.0335 3.66302197265625 1.0365000000000002 3.66302197265625 1.0395 C 3.66302197265625 1.0440000000000003 3.66152197265625 1.0470000000000002 3.66002197265625 1.0500000000000003 M 3.65552197265625 1.0995000000000001 C 3.65552197265625 1.098 3.65402197265625 1.0965000000000003 3.65402197265625 1.0950000000000002 C 3.65402197265625 1.0935000000000001 3.65702197265625 1.0935000000000001 3.65852197265625 1.0935000000000001 C 3.65852197265625 1.0905000000000002 3.65552197265625 1.0890000000000002 3.65552197265625 1.0890000000000002 C 3.65402197265625 1.0860000000000003 3.65252197265625 1.0845000000000002 3.65252197265625 1.0830000000000002 C 3.65252197265625 1.0800000000000003 3.65852197265625 1.0890000000000002 3.65852197265625 1.0860000000000003 L 3.66152197265625 1.0935000000000001 L 3.65852197265625 1.098 C 3.66302197265625 1.098 3.66302197265625 1.0995000000000001 3.66302197265625 1.1010000000000002 C 3.66302197265625 1.104 3.66152197265625 1.1085000000000003 3.66152197265625 1.11 C 3.66002197265625 1.1115000000000002 3.65852197265625 1.1115000000000002 3.65702197265625 1.1115000000000002 C 3.65702197265625 1.11 3.65552197265625 1.0995000000000001 3.65552197265625 1.0995000000000001 M 3.66302197265625 1.0110000000000001 C 3.66602197265625 1.0125000000000002 3.66752197265625 1.0155000000000003 3.66752197265625 1.0185000000000002 C 3.66752197265625 1.0215 3.66602197265625 1.0245000000000002 3.66602197265625 1.0260000000000002 C 3.66302197265625 1.0275000000000003 3.66002197265625 1.0275000000000003 3.66002197265625 1.0275000000000003 C 3.66002197265625 1.0260000000000002 3.66002197265625 1.0245000000000002 3.65852197265625 1.0230000000000001 C 3.66002197265625 1.0200000000000002 3.66002197265625 1.0185000000000002 3.66002197265625 1.0170000000000001 M 3.67352197265625 0.9000000000000001 C 3.67502197265625 0.9015000000000002 3.67502197265625 0.9090000000000003 3.67502197265625 0.9120000000000001 C 3.67202197265625 0.9120000000000001 3.67202197265625 0.9090000000000003 3.67202197265625 0.9060000000000001 C 3.67202197265625 0.9030000000000002 3.67202197265625 0.9015000000000002 3.67352197265625 0.9000000000000001 M 3.68102197265625 1.0050000000000001 C 3.68252197265625 1.0050000000000001 3.67952197265625 1.0095 3.67952197265625 1.0125000000000002 C 3.67802197265625 1.0110000000000001 3.67652197265625 1.0095 3.67652197265625 1.0080000000000002 C 3.67652197265625 1.0065000000000002 3.67802197265625 1.0050000000000001 3.68102197265625 1.0050000000000001 M 3.69002197265625 1.0815000000000001 C 3.68852197265625 1.0755000000000001 3.68852197265625 1.0725000000000002 3.68852197265625 1.0710000000000002 C 3.69002197265625 1.0710000000000002 3.69152197265625 1.0740000000000003 3.69152197265625 1.0755000000000001 C 3.69152197265625 1.0785000000000002 3.69002197265625 1.0800000000000003 3.69002197265625 1.0815000000000001 M 3.68702197265625 0.9795000000000001 C 3.68702197265625 0.9825000000000002 3.68702197265625 0.9855000000000002 3.68402197265625 0.9885000000000002 C 3.68402197265625 0.9855000000000002 3.68552197265625 0.9780000000000002 3.68702197265625 0.9795000000000001 M 3.64502197265625 1.0245000000000002 C 3.64652197265625 1.0245000000000002 3.64652197265625 1.0290000000000001 3.64652197265625 1.0290000000000001 C 3.64652197265625 1.0290000000000001 3.64502197265625 1.0275000000000003 3.64502197265625 1.0245000000000002 M 4.978531494140625 0.16800000000000015 C 4.996531494140625 0.13050000000000006 5.055031494140625 0.07650000000000023 5.092531494140625 0.028500000000000192 C 5.088031494140625 0.028500000000000192 5.080531494140625 0.03300000000000014 5.077531494140625 0.03750000000000009 C 5.077531494140625 0.03300000000000014 5.076031494140625 0.03300000000000014 5.076031494140625 0.03300000000000014 C 5.074531494140625 0.03300000000000014 5.065531494140625 0.03300000000000014 5.062531494140625 0.036000000000000254 C 5.055031494140625 0.036000000000000254 5.052031494140625 0.043500000000000094 5.049031494140625 0.04650000000000021 C 5.049031494140625 0.036000000000000254 5.055031494140625 0.0345000000000002 5.059531494140625 0.03000000000000025 L 5.055031494140625 0.03000000000000025 C 5.055031494140625 0.022500000000000187 5.074531494140625 0.018000000000000238 5.080531494140625 2.220446049250313e-16 L 5.053531494140625 0.013500000000000068 C 5.0235314941406255 0.013500000000000068 5.010031494140625 0.04200000000000026 4.983031494140625 0.05250000000000021 C 4.861531494140625 0.15000000000000013 4.762531494140625 0.2745000000000002 4.662031494140625 0.40200000000000014 L 4.636531494140625 0.43500000000000016 C 4.599031494140625 0.3480000000000002 4.530031494140625 0.1635000000000002 4.444531494140625 0.10650000000000026 C 4.434031494140625 0.0990000000000002 4.420531494140625 0.09150000000000014 4.407031494140625 0.09150000000000014 C 4.387531494140625 0.09150000000000014 4.392031494140625 0.09750000000000014 4.374031494140625 0.10950000000000015 C 4.362031494140625 0.11850000000000027 4.333531494140625 0.13200000000000012 4.326031494140625 0.14550000000000018 C 4.323031494140625 0.15000000000000013 4.312531494140625 0.1605000000000002 4.311031494140625 0.1665000000000002 C 4.302031494140625 0.1695000000000002 4.293031494140625 0.18300000000000016 4.285531494140625 0.18900000000000017 C 4.269031494140625 0.20250000000000012 4.275031494140625 0.2130000000000002 4.264531494140625 0.2220000000000002 C 4.260031494140625 0.2250000000000002 4.260031494140625 0.2310000000000002 4.260031494140625 0.2370000000000002 L 4.260031494140625 0.24600000000000022 C 4.260031494140625 0.2685000000000002 4.273531494140625 0.2955000000000002 4.296031494140625 0.3360000000000002 C 4.363531494140625 0.4530000000000002 4.431031494140625 0.6165000000000002 4.465531494140625 0.7005000000000001 C 4.417531494140625 0.7725000000000002 4.296031494140625 0.9855000000000002 4.296031494140625 1.0875000000000001 L 4.296031494140625 1.0965000000000003 C 4.296031494140625 1.1010000000000002 4.296031494140625 1.1070000000000002 4.300531494140625 1.1070000000000002 C 4.312531494140625 1.1070000000000002 4.327531494140625 1.0845000000000002 4.332031494140625 1.0680000000000003 C 4.332031494140625 1.0680000000000003 4.338031494140625 1.0695000000000001 4.338031494140625 1.0740000000000003 C 4.335031494140625 1.0755000000000001 4.335031494140625 1.0770000000000002 4.335031494140625 1.0785000000000002 C 4.335031494140625 1.0815000000000001 4.336531494140625 1.0845000000000002 4.336531494140625 1.0875000000000001 C 4.356031494140625 1.0815000000000001 4.353031494140625 1.0530000000000002 4.366531494140625 1.0470000000000002 C 4.366531494140625 1.0515 4.366531494140625 1.0710000000000002 4.368031494140625 1.0710000000000002 C 4.374031494140625 1.0710000000000002 4.398031494140625 1.0275000000000003 4.408531494140625 1.0275000000000003 C 4.410031494140625 1.0275000000000003 4.411531494140625 1.0290000000000001 4.4130314941406255 1.0320000000000003 L 4.435531494140625 1.0005000000000002 C 4.441531494140625 1.0005000000000002 4.447531494140625 0.9975000000000002 4.450531494140625 0.9945000000000002 C 4.453531494140625 0.9900000000000002 4.456531494140625 0.9900000000000002 4.456531494140625 0.9840000000000002 C 4.456531494140625 0.9840000000000002 4.459531494140625 0.9795000000000001 4.459531494140625 0.9765000000000001 C 4.462531494140625 0.9765000000000001 4.467031494140625 0.9825000000000002 4.467031494140625 0.9825000000000002 C 4.471531494140625 0.9825000000000002 4.509031494140625 0.8985000000000002 4.537531494140625 0.8625000000000003 C 4.557031494140625 0.9135000000000002 4.702531494140625 1.2570000000000001 4.726531494140625 1.3395000000000001 L 4.726531494140625 1.3185000000000002 C 4.731031494140625 1.3185000000000002 4.732531494140625 1.3170000000000002 4.732531494140625 1.3140000000000003 C 4.732531494140625 1.3110000000000002 4.731031494140625 1.3050000000000002 4.731031494140625 1.3020000000000003 C 4.731031494140625 1.2990000000000002 4.731031494140625 1.2975000000000003 4.734031494140625 1.2960000000000003 C 4.734031494140625 1.3065000000000002 4.734031494140625 1.3110000000000002 4.738531494140625 1.3110000000000002 C 4.749031494140625 1.3110000000000002 4.7415314941406255 1.3005000000000002 4.756531494140625 1.3005000000000002 C 4.777531494140625 1.3005000000000002 4.770031494140625 1.2855000000000003 4.773031494140625 1.2705000000000002 C 4.776031494140625 1.2750000000000001 4.785031494140625 1.2735000000000003 4.786531494140625 1.2765000000000002 C 4.786531494140625 1.2645000000000002 4.807531494140625 1.2165000000000001 4.812031494140625 1.2120000000000002 C 4.816531494140625 1.2165000000000001 4.825531494140625 1.221 4.830031494140625 1.2240000000000002 C 4.830031494140625 1.2180000000000002 4.825531494140625 1.2135000000000002 4.825531494140625 1.2075000000000002 C 4.831531494140625 1.2075000000000002 4.837531494140625 1.2120000000000002 4.839031494140625 1.2180000000000002 L 4.839031494140625 1.2090000000000003 C 4.839031494140625 1.2060000000000002 4.839031494140625 1.2045000000000001 4.842031494140625 1.2030000000000003 C 4.842031494140625 1.2075000000000002 4.845031494140625 1.2060000000000002 4.848031494140625 1.2165000000000001 C 4.852531494140625 1.2105000000000001 4.849531494140625 1.1970000000000003 4.854031494140625 1.1880000000000002 C 4.855531494140625 1.2000000000000002 4.8570314941406245 1.2060000000000002 4.860031494140625 1.2060000000000002 C 4.863031494140625 1.2060000000000002 4.866031494140625 1.1985000000000001 4.869031494140625 1.1835000000000002 C 4.869031494140625 1.2015000000000002 4.875031494140625 1.2090000000000003 4.890031494140625 1.2090000000000003 C 4.897531494140625 1.2090000000000003 4.897531494140625 1.2000000000000002 4.897531494140625 1.1850000000000003 C 4.897531494140625 1.0320000000000003 4.722031494140625 0.6705000000000002 4.705531494140625 0.5970000000000002 C 4.770031494140625 0.4860000000000002 5.013031494140625 0.1725000000000002 5.013031494140625 0.16500000000000015 C 5.016031494140625 0.16200000000000014 5.017531494140625 0.1605000000000002 5.017531494140625 0.15900000000000014 C 5.016031494140625 0.15900000000000014 5.010031494140625 0.1605000000000002 5.007031494140625 0.16200000000000014 C 5.005531494140625 0.1635000000000002 5.019031494140625 0.14850000000000008 5.028031494140625 0.13500000000000023 C 5.031031494140625 0.13500000000000023 5.032531494140625 0.13350000000000017 5.032531494140625 0.13200000000000012 C 5.037031494140625 0.1260000000000001 5.038531494140625 0.1200000000000001 5.038531494140625 0.11700000000000021 C 5.038531494140625 0.11100000000000021 4.9980314941406245 0.1725000000000002 4.986031494140625 0.17100000000000015 L 4.9770314941406255 0.18300000000000016 C 4.966531494140625 0.18300000000000016 4.974031494140625 0.19650000000000012 4.962031494140625 0.19650000000000012 C 4.962031494140625 0.18000000000000016 4.992031494140625 0.1695000000000002 4.992031494140625 0.15300000000000025 C 4.987531494140625 0.15600000000000014 4.983031494140625 0.1635000000000002 4.978531494140625 0.16800000000000015"
                  fill="#212245" fill-rule="nonzero"></path>
        </g>
        <g></g>
    </g>
    <defs>
        <clipPath id="SvgjsClipPath30028">
            <path d=" M -2.81960201272854 -0.63305100636427 h 2.4196020127285403 v 2.4196020127285403 h -2.4196020127285403 Z"></path>
        </clipPath>
        <mask id="maskedMgText-90e69ba7-5ad4-48d9-ac4a-e986a5c36fb3">
            <path d=" M -0.4389114806275436 0.7599642709585152 C -0.44315834931543807 0.7719305191987642 -0.4473205226163941 0.7839088667800045 -0.45068413941193475 0.7932858560481472 C -0.46937762124326365 0.8012714211023071 -0.48907534837685884 0.7913983588535274 -0.5012351860729665 0.8083616349231221 L -0.5457607609204047 0.8077566678735645 C -0.5479386422988122 0.7799281835939156 -0.5501165236772196 0.7519787059043551 -0.5521976103276975 0.7245374005364229 C -0.5507093913857863 0.7226378040008122 -0.5496204506965827 0.720242134484564 -0.5482290264826 0.7199396509597853 C -0.5391303220572539 0.718148948493095 -0.5297291341071291 0.7176407761714665 -0.5208240191376412 0.7150999145633247 C -0.5142185065906582 0.7124609058303146 -0.507918325906932 0.7091140616164874 -0.5020337425783827 0.7051179582456245 C -0.4890753483768593 0.695837763705411 -0.4800613393384512 0.6851661449512152 -0.4853124533286113 0.6671018288514257 C -0.486540060963643 0.6634394934485698 -0.48649315626679335 0.6594696504697518 -0.48517936057770883 0.6558373423886633 C -0.4838731436535939 0.6522161099794513 -0.481372415366752 0.6491478102554933 -0.4780891467568935 0.6471379162160253 C -0.4673086339337771 0.6424433719114585 -0.4670061504089982 0.6335624556239532 -0.46888154826262674 0.6237861881031025 C -0.468095091098202 0.6124128075714199 -0.4674054286617062 0.6009305329708169 -0.4666068721562908 0.5895571524391344 C -0.46721183920584863 0.5809787196764077 -0.46769581284549444 0.57238818757269 -0.46819188582613136 0.5638097548099635 C -0.46819188582613136 0.5529203479179268 -0.46513075255537006 0.539853059647483 -0.46987369422390146 0.5316739051374645 C -0.4765810069270031 0.5227598952411951 -0.48627596501848336 0.516561479412216 -0.49718190684093133 0.5142145560872327 C -0.5135108234026244 0.511038958797607 -0.5300431306847162 0.5090174000690558 -0.5466561121537494 0.5081648855916567 C -0.5526198124112844 0.5040603498991229 -0.5588304454345372 0.5003266967348513 -0.5652527992571508 0.4969850945158324 C -0.5904799252237023 0.48540602518730025 -0.5907824087484812 0.4852124357314418 -0.5888949115538615 0.448478836482305 L -0.5722704170320179 0.46552680793883777 C -0.5609194337911922 0.4518521005216176 -0.5558550363320456 0.4340278811901186 -0.5583198768692197 0.41642768219674414 C -0.5531776569479805 0.39646376956134377 -0.5682171377999823 0.3813395933224041 -0.5710846816148851 0.36014154790590625 L -0.5465472180848296 0.3132324028832109 C -0.5341816915918729 0.31273632990257366 -0.5204368402259243 0.31623303944901654 -0.5122213876929322 0.3022583006042363 C -0.49945658294726747 0.28508933573779205 -0.5002551394526831 0.2649318336465332 -0.4999526559279044 0.24507681508005325 C -0.48785331493675277 0.23599020999569836 -0.4912532297552663 0.22208806719686497 -0.4891721431047884 0.20984353411381942 C -0.4833017673165736 0.20664758299103309 -0.47843756648427815 0.20187974444912804 -0.4751248082140611 0.19607448406588884 C -0.4718084199886394 0.19024889778769932 -0.4701630746304428 0.18362146343140262 -0.4703697672045384 0.17692122727689566 C -0.4731405162915123 0.15066565732609632 -0.46047250627377645 0.13200847351774037 -0.4480101850528899 0.11225024967918965 C -0.4415744248286435 0.10218053684065431 -0.4438480972041783 0.08886855180324899 -0.45326129904304957 0.08150582422067314 L -0.4651307525553696 0.06155401092626392 C -0.46383612306931643 0.057065155418546634 -0.4602910161589089 0.051572054608563775 -0.4616703410319001 0.04824473583599703 C -0.4641916461503113 0.04245560722319969 -0.4680032780861454 0.03731962977220048 -0.472813834084751 0.033229453665977675 C -0.4776013600446134 0.029147906649444597 -0.483265288984035 0.0262248556032227 -0.4893657325606464 0.024687318926224597 C -0.49629865494857617 0.01900062866038333 -0.5029169944707361 0.012721070685975527 -0.5102370957703828 0.007748241538612179 C -0.5216854428816449 0.0016074563879662322 -0.5305382146327855 -0.00845231626665369 -0.5351738375531472 -0.02058841506266514 C -0.5336856186112351 -0.021689455092859935 -0.5311205583211107 -0.022584806326205135 -0.5308180747963318 -0.02398832988117876 C -0.5216225756430566 -0.07109106435973245 -0.5216225756430566 -0.07109106435973245 -0.5366620564950584 -0.10931288255078074 C -0.5401224680185277 -0.11798811004143653 -0.5430868065613599 -0.1267722316010127 -0.5465472180848296 -0.13545955843265967 C -0.5296081406972168 -0.15232603977432518 -0.5327055719909519 -0.17187857481602634 -0.538936732601395 -0.1918424874514267 C -0.5406185409991655 -0.19712989946456 -0.5454582773956258 -0.20291338445833051 -0.5442725419784931 -0.2072086505101894 C -0.5385374543486874 -0.22777753019514735 -0.5313141477769696 -0.24803182701433532 -0.5244901194579599 -0.2701252236641784 L -0.5706975027031682 -0.2936826405739509 C -0.5993912444237539 -0.30628025745351306 -0.6294791041314567 -0.31542683683549827 -0.6603294207656205 -0.32093035648602464 C -0.6732144882274183 -0.33194675018639364 -0.6907954318368581 -0.3357023893572347 -0.7070570756734484 -0.3309123128037248 L -0.7639239783318614 -0.3309123128037248 C -0.7844081626298813 -0.3315051805122912 -0.8063684665288215 -0.3374943543029113 -0.8248683589042927 -0.33180766403706996 C -0.8576212749673402 -0.3218257077193698 -0.8910638534668838 -0.3236285095270514 -0.9238046701889404 -0.3184378922418473 C -0.9457476604667778 -0.3202035771571012 -0.9678315749843722 -0.31862061783088164 -0.989298402974045 -0.3137433479372804 C -1.0119604686504717 -0.3093512871574923 -1.0363890381116072 -0.3137433479372804 -1.0599464550213797 -0.3096537706822712 C -1.0628139988362826 -0.3117469566737404 -1.065875132107044 -0.31583653392874966 -1.0686458811940176 -0.315703441177847 C -1.092497731961139 -0.31663450446965463 -1.1152703618416462 -0.30572592117632763 -1.1294934670385197 -0.28655612873016256 C -1.1329883258882067 -0.2871564684502462 -1.136539893891311 -0.28735941519328073 -1.1400803904057777 -0.2871610957797201 C -1.1479933594139906 -0.2971430520974203 -1.1557127389663455 -0.28895179824641054 -1.1635289132466293 -0.2871610957797201 C -1.1932085966979245 -0.2871610957797201 -1.2228882801492198 -0.28645933400223333 -1.2532576260370105 -0.28586646629366685 C -1.2682592083432145 -0.2875559543982428 -1.2833393035094756 -0.28344831653579106 -1.295411730050183 -0.27438419169306383 C -1.3013035810249534 -0.26959212257748333 -1.3094284816436272 -0.2686218445905576 -1.3162830932599197 -0.27189172744888657 C -1.336065515780453 -0.27936912018141835 -1.3511049966324542 -0.26860070669929337 -1.3687216371155713 -0.26131690342262004 C -1.3863382775986883 -0.25403310014594666 -1.408891449206195 -0.26829822317451457 -1.4259999173676836 -0.2513349471049198 L -1.4603378471005721 -0.24135299078721964 C -1.4811124155823796 -0.2495321452972382 -1.501790189336258 -0.2562230808653451 -1.5208345520563307 -0.23705772473536077 L -1.5208345520563307 -0.21566608986300453 C -1.5208345520563307 -0.21456504983280972 -1.523798890599163 -0.21357290387153524 -1.5253839042690038 -0.21256865856926965 C -1.5642711862145655 -0.24310739523093666 -1.5642711862145655 -0.24310739523093666 -1.5972176917334715 -0.22893906693029795 C -1.621692424289881 -0.2299129884379577 -1.6461456585681349 -0.22653320651811193 -1.669438658109656 -0.2189571106125978 C -1.6945526125465338 -0.2130292823199237 -1.7200101211767738 -0.20866513798331116 -1.7456645063539113 -0.20588982234215406 L -1.839761081242099 -0.1897251027779752 C -1.8675412656388273 -0.18667534872605818 -1.8951475814797218 -0.18220890850955296 -1.922472176257615 -0.1763432316417609 C -1.9366357805742374 -0.17180632812043975 -1.9514235681105543 -0.16951997775590702 -1.9662959893275638 -0.1695676006867164 C -2.01100305428987 -0.1718301774520618 -2.0503743098750777 -0.15516938490724588 -2.0888018168629756 -0.13510867754391634 C -2.112044650906978 -0.13510867754391634 -2.135892452000538 -0.12313032996267614 -2.1580584446963282 -0.13873847984126186 C -2.1772479995082947 -0.13474569731418182 -2.1986154356986685 -0.13944024161874866 -2.215143135492582 -0.124473356812694 C -2.218355796853891 -0.12432650086269743 -2.221526685075235 -0.12368579371887377 -2.224544323442707 -0.12257376027708321 L -2.2477508594637357 -0.12257376027708321 C -2.2571107488637634 -0.12381996320042245 -2.266594533914083 -0.12381996320042245 -2.275954423314111 -0.12257376027708312 C -2.3038555036397064 -0.11538675172833902 -2.3310548221878156 -0.11947632898334834 -2.359052697241341 -0.12136382617796797 C -2.383377419763622 -0.12343596897211193 -2.4073989910156084 -0.12818753315050313 -2.430680795908959 -0.13553215447860667 C -2.4413492077303625 -0.1391876185052156 -2.452220551806743 -0.1422215759193226 -2.4632401225161478 -0.14461875956296144 C -2.4678470533459875 -0.1458066256693329 -2.4727143633245907 -0.14547563161673385 -2.477118066632999 -0.14367501096565177 C -2.4815421306799865 -0.14187274777994585 -2.4852761938273042 -0.13870663521349136 -2.487777586046204 -0.13463680324526134 C -2.497662747635975 -0.13064402071818138 -2.498957377122028 -0.12132752815499448 -2.5006391855197982 -0.1124829098904626 C -2.50941005348258 -0.11060500476350547 -2.5178243990384135 -0.10733729775153142 -2.525563827961571 -0.10280343709754115 C -2.545850113922194 -0.08575948070713357 -2.5573128480413474 -0.06043555994933019 -2.5567317303547776 -0.033946087516896706 C -2.5555134463194733 -0.013620307794848768 -2.558393683922189 0.006742972056349869 -2.565201269048584 0.025933551048313186 C -2.5677357643780825 0.03682056147902098 -2.568765731683719 0.04800364522836263 -2.568262402319345 0.059170440751006984 C -2.594755878424531 0.0731256512606885 -2.624405783473429 0.07999839422184023 -2.6543371141303984 0.0791222540454162 C -2.6616091446489127 0.07870993880113575 -2.6689031063000344 0.07931675079779514 -2.6760070338455515 0.08092505585309784 C -2.697519662127819 0.08681743491578864 -2.718887098318193 0.09372615862173636 -2.743618151304107 0.10133664410517079 C -2.7503453848951875 0.10782189087642813 -2.7582583539034005 0.12128845739957997 -2.769534939707154 0.12518444519873087 C -2.7959599004318294 0.1341379575321831 -2.8049618101292464 0.15669112913969002 -2.8196020127285397 0.17644935297824066 C -2.8149558657879377 0.1886333893563305 -2.8108904872149107 0.19900252458574746 -2.806934002710804 0.20948055388408485 L -2.806934002710804 0.22112011991757283 C -2.808748513473284 0.2303889198838937 -2.804340393328218 0.23976352205906737 -2.796044595818768 0.2442782585746373 C -2.7947617951381774 0.2478289930622884 -2.792999103055294 0.2511874710493052 -2.790805581169599 0.2542602148923376 C -2.761005640987034 0.28361379341145393 -2.741484241827785 0.32180783524476775 -2.735148612610301 0.36315428381270304 C -2.735148612610301 0.3662517151064379 -2.7305992603976277 0.3688409740785444 -2.728227789563362 0.37162382250650927 L -2.727429233057946 0.3938866099302285 C -2.731192128106194 0.4054535799177696 -2.735051817882372 0.4170326492463018 -2.73881471293062 0.428611718574834 C -2.7462316089581957 0.45175775789090716 -2.7550399291997545 0.4745166182952636 -2.760678222101631 0.49847331345774404 C -2.7660820613068187 0.5149787971415879 -2.7629059443841184 0.5330917382207581 -2.752208683407825 0.546773882694422 C -2.7427057061423117 0.5586994299917685 -2.737466802102481 0.5734620652779922 -2.737326493988708 0.5887101985697536 C -2.737326493988708 0.5934047428743205 -2.731276823493132 0.597591114857259 -2.7281188954944415 0.6020194736600204 C -2.728421905995602 0.6056429522407907 -2.728421905995602 0.6092854019712871 -2.7281188954944415 0.6129088805520571 C -2.731813344819681 0.6154591135739286 -2.734634821184833 0.6190831056716835 -2.736201255276531 0.6232901151224653 C -2.7377745624043115 0.6275067773680645 -2.738027760101648 0.6321023155747192 -2.7369272157360003 0.6364662974618296 L -2.7462316089581957 0.6564181107562387 C -2.732197475820461 0.6829890066269279 -2.7141785523692747 0.7072549798525183 -2.6928009191412703 0.7283728916306177 C -2.679152862503251 0.7543259780566385 -2.6571804592633192 0.7758749043618798 -2.6565875915547528 0.8082285421722195 C -2.6565875915547528 0.816806974934946 -2.643629197353229 0.8250950235138852 -2.63680516903422 0.833467767479762 C -2.6334415522386796 0.8379687223284705 -2.6309732866764843 0.8443571743717987 -2.6269079081034574 0.846643949819126 C -2.6104305098421703 0.8561740229642157 -2.5975089897387025 0.8708158637915179 -2.590101712808374 0.888350378215626 L -2.607718353291491 0.9006312093216452 L -2.624536437269192 0.9130088351555934 C -2.6312685756852234 0.9223853580457276 -2.6429561721975747 0.9268259776745543 -2.654216120720487 0.9242854209593468 C -2.6692237815853144 0.9239032293087225 -2.6838681932227293 0.9289321460323041 -2.6954748735003142 0.9384537492599856 C -2.7086066433458664 0.9486443320628658 -2.720943308213025 0.9598201369900656 -2.7323778635233276 0.971884228418538 C -2.736059877391105 0.9781883914249017 -2.7385226039929416 0.9851291758977441 -2.7396374681180182 0.9923442140345755 C -2.7518094051551167 0.99344525406477 -2.765663150589986 0.9903478227710352 -2.772874357820712 1.0048186345964532 C -2.779117617772146 1.0209833541606317 -2.7767340475968894 1.0315581781868983 -2.7622995337944456 1.0507961303628297 C -2.7582341552214187 1.061975921438654 -2.7541808759893827 1.073155712514478 -2.7500308020294177 1.0844322983182313 C -2.7401335410986554 1.1024966144180208 -2.7149427131550774 1.09660423535533 -2.704222697036917 1.1143660679303407 C -2.6935026809187566 1.1321279005053517 -2.6703445422616925 1.1281351179782715 -2.6497756625767344 1.138213869023901 C -2.6518567492272123 1.1681597379770012 -2.6288075046390684 1.1773431377892853 -2.604862908817579 1.1857158817551625 C -2.594965647886817 1.1892125913016056 -2.585080486297046 1.177936005497852 -2.5867138973308514 1.1649655119553373 C -2.5876097073942668 1.1612749891256455 -2.588903865541963 1.157692726917445 -2.590573587107029 1.1542817938601504 C -2.5715495895074776 1.1339194235117491 -2.559223418511212 1.1082156198617776 -2.555255610753857 1.08063310524701 C -2.554372358861503 1.0742446532036816 -2.548334787706918 1.068461168209911 -2.5447654821145282 1.0623751996913617 C -2.5407122028824927 1.0658719092378048 -2.537058201903165 1.0723571560090621 -2.532666141123377 1.0723571560090621 C -2.5043657825450727 1.0763499385361421 -2.497336065429214 1.0947046388197192 -2.4992235626238335 1.1198591687403239 L -2.5550257232750253 1.1597869940111245 C -2.543047375693785 1.1705675068342407 -2.5338518765405094 1.1788434560721885 -2.52534603982373 1.1868290211263484 C -2.5158873386177127 1.1798472562419955 -2.5059674607985962 1.1735129251325596 -2.4956542570314433 1.1678693537932139 C -2.483554916040292 1.162376252983231 -2.471915350006804 1.1808398473357287 -2.4578680151160768 1.169563261531975 C -2.4566580810169616 1.165074406024258 -2.455194060757032 1.159593404555266 -2.4538147358840408 1.154402787270062 C -2.4455823302847195 1.1507609942834145 -2.436994190050881 1.1479834324041986 -2.4281883316647814 1.1461147386911232 C -2.4198760844038603 1.1452193874577778 -2.4109709694343726 1.1560966950088232 -2.402864410970301 1.1478086464298842 C -2.3929671500395386 1.137826690112184 -2.400190456611256 1.127856833135475 -2.402864410970301 1.1169795255844297 C -2.4035902961227067 1.1118142862661191 -2.4035902961227067 1.1065729130471278 -2.402864410970301 1.1014076737288174 L -2.3858406381957504 1.0971124076769583 C -2.380299140021803 1.116072075010093 -2.380299140021803 1.116072075010093 -2.3682360970536247 1.108001814568995 L -2.351018734823216 1.0967252287652416 C -2.351170276035668 1.1022255926095947 -2.3521366342616563 1.1076730803307782 -2.3538862786381185 1.1128899483294201 C -2.3608350456212017 1.1239809654146242 -2.3610633464115294 1.1380098160202685 -2.354479146346685 1.149321064053778 C -2.3526312765071853 1.1545094613051585 -2.351693901647073 1.1599781635458128 -2.3517083972597113 1.1654857836179566 C -2.3562771825844675 1.1652436856454005 -2.3608455828140618 1.165969352107863 -2.3651144670779076 1.1676152676323994 C -2.3693906119721206 1.1692687951461513 -2.3732731203048143 1.1717994322122594 -2.3765120462915723 1.1750442630009665 C -2.3831058817049207 1.1816376497053087 -2.3866193304890255 1.1907023475682996 -2.386191519084494 1.2000173028067038 C -2.4017149735761416 1.2060064765973242 -2.417553010933559 1.211499577407307 -2.4328828759693484 1.2182752083623516 C -2.4482127410051375 1.225050839317397 -2.4691808989428035 1.2228729579389894 -2.4784973915059902 1.2424738903446553 C -2.4695922765365026 1.246769156396514 -2.458702869644466 1.2488623423879832 -2.4535606497232267 1.2553475891592407 C -2.446563019333384 1.2656016649619477 -2.4407543065845587 1.276618329113109 -2.4362464927648886 1.2881852006092263 C -2.4266275953712304 1.2866537464909584 -2.4168269717797823 1.2866537464909584 -2.407208074386124 1.2881852006092263 C -2.3927956134302204 1.2939579855033203 -2.376307872010554 1.289949029808883 -2.3661550104031464 1.2782032442915263 C -2.357346690161588 1.270120884509437 -2.3486351646479586 1.2776103765829596 -2.3399357384753205 1.2798971520302873 L -2.296099826064378 1.2911737378340407 C -2.2817621069898633 1.2827041991402346 -2.2676058780302157 1.2739200775806585 -2.2531713642277715 1.265765121752622 C -2.2453316443283238 1.2601672775643094 -2.2351374668057593 1.2590707841224134 -2.2262866285454326 1.262873379255737 C -2.1961108721135005 1.277247396353225 -2.1768124232326134 1.2628733792557367 -2.161772942380612 1.2376220546072032 C -2.1608896904882577 1.2361338356652916 -2.15871180910985 1.2354320738878046 -2.1571267954400093 1.2344399279265303 C -2.15306782662251 1.2368203090067011 -2.1498370728131078 1.2403889194236224 -2.1478707995817783 1.2446638710640534 C -2.1458891566311085 1.2489476790631742 -2.145252166234746 1.2537314347550592 -2.1460437990921144 1.2583845237480193 C -2.14693915032546 1.2689593477742858 -2.1481248857425923 1.2795462711415437 -2.149117031703867 1.289516128118253 C -2.128233569153139 1.300998402718856 -2.108547941360535 1.3108714649676354 -2.088463035315223 1.306890781781547 C -2.0576944111747246 1.300841111285971 -2.027966330359465 1.2896250221871735 -1.9976453818356386 1.2806352118307478 C -1.9963672378387212 1.2912951805233914 -1.9977601289079017 1.3021056783737488 -2.001698661067674 1.3120934984077421 C -2.005603217964928 1.3221081261628662 -2.0119652085839035 1.3309791294327515 -2.0201985534431453 1.3378892934008777 C -2.041082015993873 1.3548283707884898 -2.069672758755965 1.3515615487208787 -2.0925284138882505 1.3632374127773403 C -2.0943070170139495 1.3772121516221205 -2.09598882541172 1.389855962957874 -2.0976706338094897 1.403165238048141 C -2.0916533931390666 1.4082088490808173 -2.085012930364149 1.4124582572864444 -2.077912409970939 1.4158090493838948 C -2.070983597623286 1.4187545010636797 -2.0631893346573618 1.418932037053459 -2.056133596186866 1.4163051223645315 C -2.03180182145366 1.4010357540336982 -2.0092486498461533 1.4142119363730623 -1.9860905111890887 1.4185072024249212 C -1.9846928334583684 1.43656329888895 -1.9757493379343676 1.4531939835912424 -1.9614562529311037 1.4643153074174216 L -1.9189149700062142 1.4643153074174216 C -1.8907235054968308 1.4636135456399348 -1.8634152928798011 1.464908175125988 -1.8380792728443296 1.4805768217095294 C -1.821232806351299 1.4892037905534306 -1.8014941389270436 1.4901863179720936 -1.7838742252039699 1.4832749747505565 C -1.7716054934389418 1.479645172453211 -1.7586349998964272 1.4781811521932815 -1.7459790892196825 1.4757854826770336 C -1.7406311805015935 1.473994780210343 -1.7344968146190793 1.469602719430555 -1.7299474624064062 1.4709457462805726 C -1.710854702322369 1.4763420523626263 -1.6938309295478184 1.4702439845030861 -1.6753310371723475 1.4664568907728552 C -1.6497167322940793 1.461169478759722 -1.6250824740360943 1.448307879286128 -1.5976653673501446 1.4531476156825884 C -1.5921238691761972 1.4631174726592977 -1.5891958286563383 1.4744061578040422 -1.5778829448296117 1.4801896427978127 L -1.5328612970015358 1.471502315966166 C -1.5320930958189707 1.4608212024237068 -1.5281114238477964 1.4506223858704241 -1.5214395191058885 1.4422461094495609 C -1.5148021903412934 1.433902752483673 -1.5057778518042642 1.427782410632086 -1.4955711280668063 1.424702065012391 C -1.4751837384967155 1.4178175399884259 -1.4608460194222008 1.3930622883205293 -1.4350744231110477 1.4035403176188668 C -1.4207367040365328 1.3935704606421577 -1.4181353457234351 1.3723119185207044 -1.3978810489042472 1.3684522287445267 C -1.3944549416049736 1.3723259930185496 -1.3904902490826243 1.375687628507695 -1.3861083901198565 1.3784341850622268 C -1.3663138682583322 1.3884161413799267 -1.3537547523095168 1.3834191135505813 -1.3465314457377993 1.3633584061872517 C -1.3447528426120998 1.3579741994461891 -1.3452489155927374 1.3507871908974451 -1.3418852987971968 1.3473025806919932 C -1.3361551567495122 1.3427899377501702 -1.3298275725123048 1.33909273923834 -1.3230829228969472 1.336316379072028 C -1.3097736478066802 1.3326260800697265 -1.2961739885326258 1.3294318540480625 -1.28350597851489 1.3249429985403451 C -1.2773581142963775 1.3221953586701618 -1.2714941966541233 1.3188520745963128 -1.2659982321006933 1.314961042222645 C -1.2463375484709234 1.316734991434921 -1.2266021156022304 1.31248999561155 -1.2094096142850772 1.302789105185547 C -1.1752773733490378 1.3047854964490864 -1.1439158814999724 1.2928071488678463 -1.1123487008540578 1.282825192550146 C -1.1060258944108683 1.2810772922904607 -1.100161866525377 1.2779677056723096 -1.0951676366466225 1.273714388783809 C -1.0901614581387375 1.2694438828031565 -1.0861338105457645 1.2641452152730568 -1.0833586798392583 1.2581788349511702 C -1.0798014735878596 1.2575859672426037 -1.0760990752445674 1.257186688989896 -1.0723845775602836 1.256884205465117 C -1.04818589557798 1.2610705774480555 -1.0266732672957124 1.2487050509550985 -1.0037208174354972 1.2453051361365848 C -0.9729460560935155 1.247758946643068 -0.9419955330289964 1.2438546092025937 -0.9127942698869926 1.2338349608769728 L -0.8787588236788826 1.2338349608769728 C -0.8536923356464479 1.236463600755055 -0.8293658485933109 1.224364014444074 -0.8163383235055308 1.2027880518936773 C -0.8085526591097971 1.193455556221046 -0.7996862918173429 1.185080636680487 -0.7899254621218466 1.1778392107699225 L -0.7672633964454196 1.2189769701398385 C -0.7634760629564372 1.220113361296089 -0.7595416572618978 1.2206841559046235 -0.7555875323889585 1.2206708778785995 C -0.7310500688589028 1.2167748900794486 -0.722919311712849 1.1897328629642245 -0.7012735906796781 1.1825458544154805 C -0.6865549051403597 1.1803394152700453 -0.6719598387811156 1.1773751710233147 -0.6575465723376552 1.1736649381279747 C -0.6447817675919907 1.1705675068342403 -0.6321379562562373 1.1671796913567178 -0.6194578468975103 1.163682981810275 C -0.6042106008350423 1.161686800829343 -0.5907935617881674 1.1526270494381858 -0.5832445193109932 1.1392302136671575 C -0.5863056525817545 1.1229686993750494 -0.5902621370858614 1.1065619929910475 -0.5923432237363395 1.0893325314196476 C -0.5953239794083542 1.0777626507347708 -0.5903804278930562 1.0656052486981447 -0.5801712866992408 1.0593987618075382 C -0.5737465366329388 1.0563013305138034 -0.5640549644990267 1.054909906299821 -0.5614778048679114 1.0499128784704752 C -0.5559795707518727 1.0369956631374617 -0.5515760630277651 1.023639435665445 -0.5483137218695386 1.0099850531996744 L -0.5878906662515955 0.9770506470217597 L -0.5687979061675581 0.9570988337273504 C -0.5652406999161594 0.9563970719498636 -0.558900645236796 0.9570988337273504 -0.5584045722561586 0.9546789655291199 C -0.5502012190641576 0.9326218669022505 -0.5427722236955905 0.9103711788195223 -0.5350649434842267 0.888011596667874 C -0.5287053011477438 0.8913126097201457 -0.5220847833140314 0.894084648055166 -0.5152704216227022 0.8962996452468128 C -0.4999405565869137 0.9000867389770433 -0.4915315145980632 0.8926698429494673 -0.4909386468894965 0.8763357326114123 C -0.48993642676331195 0.867163124568144 -0.4936592390789962 0.8581089898419938 -0.5008238084792676 0.8522943420619942 C -0.5008238084792676 0.824550553169283 -0.5008238084792676 0.824550553169283 -0.4793595775609647 0.8178596176011762 L -0.4365158111112961 0.8211506383507695 C -0.4314132583556287 0.8083314028744565 -0.4270225779557022 0.7952401469626234 -0.42336382745391465 0.7819366741984463 C -0.42283628772081583 0.7794517343155034 -0.42283628772081583 0.7768837246439027 -0.42336382745391465 0.7743987847609591 C -0.423885909376716 0.7719180824251916 -0.4249112858101014 0.7695708351680438 -0.4263765633607113 0.7675021603960027 C -0.4278513179764276 0.7654487607716016 -0.42973880632481465 0.7637261185671785 -0.4319180615346585 0.7624446358617012 C -0.4340485758565982 0.7611347049303545 -0.43643171195818975 0.760289474998129 -0.4389114806275436 0.7599642709585152 Z"
                  fill="#ffffff" transform="matrix(1,0,0,1,0,0)" fill-rule="nonzero"></path>
            <path d=" M -0.412692208699718 0.8573760652782777 C -0.4149056434777443 0.8569416915887447 -0.41718853443463266 0.8570119980131415 -0.4193710449268331 0.8575817540751274 C -0.42380322879056065 0.8587537120146055 -0.42746785484627736 0.861866865217278 -0.4293409019035428 0.8660512927689336 C -0.4302830699796576 0.8681193599209083 -0.43074628919481706 0.870373417708963 -0.43069602809455154 0.8726454336091113 C -0.4311355541307076 0.8763388222241895 -0.4300404315471742 0.8800507884344333 -0.4276665042198964 0.8829141381586642 C -0.4252925768926188 0.8857774878828951 -0.4218477875712401 0.887541407708248 -0.4181369121457361 0.887793808530033 C -0.4136503079704015 0.8886968415423827 -0.4089966423195255 0.8875078188354125 -0.40549310080998247 0.8845632844853958 C -0.40197666438389823 0.881601335458008 -0.3999739573868739 0.8772184711430121 -0.400036298022973 0.872621234927129 C -0.3997790504507013 0.8689264219121825 -0.4009531150220824 0.8652742579502852 -0.403315219431575 0.862421490471588 C -0.4056684293319861 0.8595874405676343 -0.40903057374478813 0.8577783899610041 -0.41269220869971757 0.8573760652782777 Z"
                  fill="#ffffff" transform="matrix(1,0,0,1,0,0)" fill-rule="nonzero"></path>
            <path d=" M -0.4217062177381261 0.7024803019095532 C -0.4201212040682851 0.7024803019095532 -0.4167575872727449 0.6969993004405616 -0.4173504549813112 0.6954989821576587 C -0.41833376803874334 0.6919459544761888 -0.4206533320451984 0.6889110109163413 -0.42382360241157757 0.6870294434638526 C -0.4269679480246935 0.6851687794414064 -0.4307143291429494 0.6846087757748304 -0.4342653336869413 0.6854686284759939 C -0.43535427437614493 0.6868721520309674 -0.4375321557545524 0.6885660597697287 -0.4372417715707648 0.6896670997999234 C -0.4367261144510166 0.6933683799051749 -0.43483902536393937 0.696740957884596 -0.4319543595576314 0.699116685114013 C -0.42909147097509925 0.7015023464764568 -0.4254260074312928 0.7027054147942586 -0.4217062177381261 0.702480301909553 Z"
                  fill="#ffffff" transform="matrix(1,0,0,1,0,0)" fill-rule="nonzero"></path>
            <path d=" M -1.64881096562474 0.7946442672752851 C -1.729030745616636 0.7426098153886499 -1.802204193582217 0.6987057466093014 -1.8683313095214826 0.6629320609372397 C -1.9604756514040658 0.8385483360546336 -2.03581720153159 0.995735742795511 -2.0943559599040547 1.1344942811598717 L -2.2846069246145646 0.960504082663935 C -2.2304043705659864 0.840174412676091 -2.16048307584332 0.7057520786356166 -2.074843040446566 0.5572370805425118 L -2.203303093541697 0.49544616892713245 L -2.092729883282597 0.3051952042166223 L -1.962643753566009 0.3669861158320016 C -1.8629110541166247 0.2043784536862664 -1.7734768399364704 0.07266624734822091 -1.694341111025546 -0.028150503182134967 L -1.5187248359081518 0.1295789290992282 C -1.5631709302279861 0.18811768747169288 -1.641222608057939 0.3024850765141933 -1.7528798693980105 0.4726810962267295 C -1.6835006002158304 0.511706935141706 -1.6130372799526782 0.5534429017591114 -1.541489908608555 0.5978889960789455 C -1.383218450786706 0.32579217475508193 -1.2542163721510895 0.12686880139679935 -1.1544836727017052 0.0011188760040974355 L -0.9788673975843112 0.1588483082854606 C -1.106785425138956 0.33121243015993984 -1.2298252228292292 0.52146339487045 -1.34798679065513 0.7296012024169911 L -1.2097702778312551 0.8320440295688043 L -1.3366042543049286 1.0174167644149423 L -1.4520556944284007 0.9296086268562453 C -1.498669890910178 1.0217529687388287 -1.536069653203697 1.105766927514125 -1.5642549813089577 1.181650503182135 L -1.7528798693980105 1.0076603046861983 C -1.726862643454693 0.9491215463137336 -1.6921730088636027 0.8781162005100959 -1.64881096562474 0.7946442672752851"
                  fill="NA" transform="matrix(1,0,0,1,0,0)" fill-rule="nonzero"></path>
        </mask>
    </defs>
</svg>